<?xml version="1.0" encoding="utf-8"?>
<!-- Generator: Adobe Illustrator 19.2.1, SVG Export Plug-In . SVG Version: 6.00 Build 0)  -->
<svg version="1.1" id="Layer_1" xmlns="http://www.w3.org/2000/svg" xmlns:xlink="http://www.w3.org/1999/xlink" x="0px" y="0px"
	 viewBox="0 0 1656.3 545.2" style="enable-background:new 0 0 1656.3 545.2;" xml:space="preserve">
<style type="text/css">
	.st0{clip-path:url(#SVGID_2_);fill:none;stroke:#333333;stroke-width:20;stroke-miterlimit:10;}
	.st1{clip-path:url(#SVGID_3_);fill:none;stroke:#333333;stroke-width:20;stroke-miterlimit:10;}
	.st3{clip-path:url(#SVGID_6_);fill:none;stroke:#333333;stroke-width:20;stroke-miterlimit:10;}
	.st4{clip-path:url(#SVGID_8_);fill:none;stroke:#333333;stroke-width:30;stroke-miterlimit:10;}
	.st5{clip-path:url(#SVGID_13_);}
	.st6{clip-path:url(#SVGID_14_);}
	.st7{clip-path:url(#SVGID_15_);}
	.st8{clip-path:url(#SVGID_9_);fill:none;stroke:#333333;stroke-width:20;stroke-miterlimit:10;}
	.st9{clip-path:url(#SVGID_18_);fill:none;stroke:#333333;stroke-width:20;stroke-miterlimit:10;}
	.st10{clip-path:url(#SVGID_23_);}
	.st11{clip-path:url(#SVGID_24_);}
	.st12{clip-path:url(#SVGID_25_);}
	.st13{clip-path:url(#SVGID_19_);fill:none;stroke:#333333;stroke-width:20;stroke-miterlimit:10;}
	.st14{clip-path:url(#SVGID_28_);fill:none;stroke:#333333;stroke-width:20;stroke-miterlimit:10;}
	.st15{clip-path:url(#SVGID_30_);fill:none;stroke:#333333;stroke-width:30;stroke-miterlimit:10;}
	.st16{clip-path:url(#SVGID_35_);}
	.st17{clip-path:url(#SVGID_36_);}
	.st18{clip-path:url(#SVGID_37_);}
	.st20{fill:none;}
	.st21{clip-path:url(#SVGID_40_);fill:none;stroke:#333333;stroke-width:20;stroke-miterlimit:10;}
	.st22{clip-path:url(#SVGID_43_);}
	.st23{clip-path:url(#SVGID_41_);fill:none;stroke:#333333;stroke-width:26;stroke-miterlimit:10;}
	.st100{clip-path:url(#SVGID_50_);fill:none;stroke:#333333;stroke-width:26;stroke-miterlimit:10;}}
</style>
<g>
	<g>
		<defs>
		<clipPath id="SVGID_2_">
			<path id="SVGID_1_" d="M16.2,270.7c1.4,0.2,2.1-1.3,4-0.6c1.6,1.6,3.5,3.9,6.8,3.3c0.7,0.7,1.3,1.3,2.1,2c2.1-2,4.1-0.9,6.2,0.9
				c0,1.2,0.7,2.6,1.4,4.3c2.7-0.8,5.2,1.6,7.4,1c2.8,0.5,3.8,3,6.2,2.6c0.8,1.2-0.2,2.5,0.7,3.4c1.5,0.4,1.8-1.2,2.7-1.6
				c4,3.4,6.1,8.7,11.8,10.2c0.6-0.7,2-0.8,3-1.5c0.9,0.6,1.5,1.2,1.8,2.3c0.2,1,1.5,1.2,2.4,1.6c0.2,1.1-0.1,2.4,0.9,2.8
				c1.5,0.8,2.4,0.2,3.4-0.3c0.8,1.9,1.7,3.7,4.4,3.4c1.6,2.6,3.4,5.2,6.6,6.2c0.9,0.3,1.6-0.2,2.3-0.8c1.3,1.8,3.8,2,4.8,4.1
				c0.1,0.7-0.3,1.5,0.5,2c0.9,0.3,1.3-0.5,1.8-0.9c2.8,0.2,4.6,2.4,7,3.6c2.5,1.2,4.3,3.4,6.3,5.3c0.7-0.6,1.4-1.3,1.9-1.7
				c1.6,0,0.9,1.2,1.5,1.6c0.8,0,1.2-1.2,2.3-0.4c0,0.5,0.1,1.2,0.1,2c1.6,0.8,3.4-0.1,5.2,0.6c0.1,1,0.1,2,0.2,2.9
				c1,1.5,3.8,1.3,3.6,3.9c1.1,0,2.1,0,3,0c0.8,0.8,0.2,1.6,0.7,2.5c0.5,0.5,1.2,1.2,1.9,1.9c1.2,0,2.3,0,3.5,0c1,0.9,2,1.8,1.3,3.1
				c1.3,0.9,1.8,0,2.4-0.6c1.8,0.7,2.8,2.1,3.4,3.7c1.1,0.6,1.3-1.1,2.8-0.7c0.1,0.4,0.4,1.3,0.6,1.6c1.9,0,2.9,0,3.8,0
				c0.3,0.7,0.5,1.2,0.7,1.8c2.3-0.1,4.6-0.1,6.3,1.8c0.9,0.9-0.1,2.8,2.2,3.5c0.7,0,2,0,2.9,0c2.1,1.1,1.6,2.6,1.6,4.1
				c2.3,2.2,5.2,3.6,7,6.2c-0.2,0.3-0.5,0.6-0.7,0.9c1.4,1,2.5-0.1,3.5-0.5c0.9,0,0.9,0.6,0.8,1.5c1.4,0.2,3.1,0.3,3.8,2.1
				c0.4-0.4,0.7-0.6,1-0.8c2.3,1.2,4.4,2.5,5.3,5.1c2.7,0.4,3.6,2.9,5.1,4.6c1.7,1.9,3.4,3.8,5.2,5.7c0.1,1.4-0.5,3.2,1.1,3.8
				c1.4,0.5,1.5-0.8,2.8-0.7c1.4,2.3,3.5,4.4,5.7,6.4c0.4,0.7,0.2,1.4,0.1,2.1c-0.9,0.4-1.9,0.6-2.5,1.5c1.1,1.2,1,2.5,0.6,4
				c-0.6,0-1.2,0.1-1.9,0.1c-0.5-1-1.4-1.9-1.5-3.2c-0.3-0.5-0.9-0.2-1.2-0.4c-1.2-0.9-2.7-1.5-3.8-2.7c-1.7-1.8-3.2-3.7-5.5-4.8
				c-1.4-0.7-1.2-3.3-3.4-3.3c-0.4-2-2.3-2-3.7-2.8c-0.1-0.7-0.2-1.4-0.3-2.2c-2.1-0.3-4.2-0.1-5.6-2.6c-0.9-1.5-2.7-1.3-4.9-0.2
				c-0.8,0-1.2-0.7-1.6-1.3c-0.5-0.7-1.4-0.3-1.9-0.9c-0.1-1-0.1-2-0.2-3.1c-1.2-0.1-2.1-0.1-3-0.2c-0.6-0.4-0.4-0.8-0.5-1.3
				c-0.6-0.9-1.7-0.1-2.3-0.6c-0.7-0.7,0.4-0.6,0.3-1.1c-0.6-1.5-2.2-2-3.4-2.2c-1.5-0.2-2.5-1.1-3.8-1.7c-3.2-1.5-5.5-4-8-6.4
				c-1.1,0-2.3,0-3.9,0c-0.6-0.8-1.4-1.8-2.1-2.8c-0.6,0.5-0.9,0.7-1.5,1.3c-0.7-1.6-2.2-2.3-3.1-3.7c-1-1.6-2.7-2.5-4.5-2.9
				c-0.6-3.1-3.9-2.8-5.4-4.2c-1.2-0.3-1.2,1.1-2.1,0.8c-0.2-0.1-0.7-0.2-0.7-0.4c-0.8-3.3-3.9-4.1-6.4-4.8
				c-2.4-0.6-2.5-1.9-2.9-3.5c-0.8-0.6-1.3,0-1.8,0.5c-1-0.4-1.1-1.4-1.7-2.1s-1.8-1.3-2.7-1.9c-0.8-0.5-1.9-0.3-3-0.4
				c-1.3-1.1-1.7-2.8-2.4-4.1c-1.8-0.8-2.6,0.7-3.7,1.6c-0.3-1.6-1.6-2.4-2.6-3.5c-0.8,0-1.7,0-2.7,0c-1.3-1.8-3.6-2.8-4.3-5.2
				c-1.4-0.9-2.3,0.5-3.6,0.7c-1-1-2.3-1.7-2.5-3.4c-1.3,0-2.5,0-3.5,0c-1.7-0.8-1.5-2.4-3-3.5c-2.6,0.2-4.5-1.8-6.3-3.7
				c-1,0-1.9,0-2.7,0c-0.3-1.6-1.5-2.4-2.6-3.5c-0.9,0-1.7,0-3,0c-0.7-0.8-1.6-1.8-2.4-2.7c-1,0-1.8,0-2.7,0c-0.4-0.6-1.3-0.9-1.3-2
				c0.2-0.3,0.5-0.7,0.9-1.3c-1.4,0-2.7,0-4,0c-2.4-3.4-6.1-4.5-9.4-6.3c-2.6-1.4-5.4-2.6-7-4.8c-0.9-0.8-1.7-0.4-2-0.5
				c-1.3-1.2-2.4-2.2-3.4-3.3c-0.2-0.2,0.1-0.9-0.4-1.2c-1.1-0.7-1.4,0.8-2.4,0.8c-0.9-0.1-1.3-1-1.9-1.5c-0.7-0.6-1.8,0.3-2.4-0.6
				c-0.1-0.5-0.2-0.9-0.3-1.4c-1.3,0-2.6,0-3.6,0c-1.7-0.9-1.3-2.9-3-3.4c-0.2,0.2-0.5,0.4-0.8,0.8c-1.7,0-2-1.3-2.5-2.7
				c-0.9,0-1.9,0-2.6,0c-0.8-0.5-0.5-0.9-0.6-1.4c-1.1-0.5-2.2-1-3.3-1.5c-0.2-0.5-0.4-1-0.5-1.4c-1-0.3-1.4,0.3-1.9,0.8
				c-0.4-1.7-1.5-2.7-3.1-3.1c0.3-0.3,0.6-0.6,0.8-0.9c-0.2-0.2-0.4-0.4-0.7-0.7c0-0.3,0-0.6,0.4-0.7c1.6-0.4,2.6-1.4,3.2-3
				c0.5-1.4,1.4-2.6,2.2-4c0.8-0.3,1.2,0.3,1.7,0.9c0.2-0.2,0.4-0.4,0.7-0.8c1,1.3,2.5,0.6,3.7,0.9c1.2,0.7,1.5,1.8,1.3,3.1
				c0.5,0.2,1,0.4,1.6,0.6C14.8,268.1,15.8,269.3,16.2,270.7z"/>
		</clipPath>
		</defs>
		<path class="st st0" d="M-39.9,247.1c0,0,142,63.5,258,160.5"/>
	</g>
</g>
<g>
	<defs>
    	<clipPath id='SVGID_3_'>
		<path d="M258.4,242.3c1.1-0.5,1.9-0.9,3.2-1.4c0.4-1.7,1.4-3.5,3.1-4.9c1.3,0.4,1,2,2,3.4c-0.6,0.7-1.4,1.6-1.8,2.1
			c2.3,3.5-1.1,5.8,0,8.8c1,2.8-0.8,5.9,0,9.1c0.7,2.7-1.1,5.7,0.4,8.5c-0.6,1.4-1.1,2.9-1.7,4.4c0.4,1,0.9,2,1.4,3.2
			c-0.7,1.5-1.5,3-2.1,4.2c0.5,1.2,1.3,2.1,1.1,2.6c-1.4,2.7-0.1,5.4-0.2,8.1c-0.2,4.9-0.2,9.9-2.3,14.7c1.4,1.6,1.7,3.9,1.2,5.6
			c-1.6,4.6,0.2,9.7-2.5,14.1c1,3.3-2.4,4.7-3.3,7.1c-0.2,0.7-0.8,1.2-1.2,1.9c-2.4,0.3-5-0.7-7.4,0.5c-1.9-3.7-7.4-3.8-7.9-8.7
			c-0.9,0.2-1.4,0.3-2,0.4c-1.3-0.7-1.2-2.3-2.1-3.6c-2.7-0.2-5.2-1.5-7.7-3.1c-0.9-1,0.8-2.2-0.5-3.5c-1.8,0.7-3.5-0.6-5.6-1.2
			c0.7-0.6,1.2-1.1,2.1-2c-2.2,0.2-4,0.3-5.9,0.5c-2.4-0.4-2.3-4.6-5.6-3.9c-1.4-2.6-4.3-1.6-6.6-2.3c0.2-0.6,0.3-1.1,0.4-1.7
			c-2.3-1.5-4.8,0.3-7.4-0.3c0.1-2.4-1.6-5.2,1.5-7.1c0.4-3,2.8-4.6,4.9-6.7c3.3,0,6.5,0.6,9.5,3c1.1,0.8,2.3,2.5,4.1,2.2
			s2.5,1.2,3.8,1.7c2.8,1.2,4.8,3.2,7,5.2c2.1,1.9,4.7,3.2,6.8,5.3c3,3.1,6.8,5.4,10.4,7.6c1.7,1.1,3.1,2.5,4.7,3.6
			c0.9-0.4,1.7-0.7,2.6-1.2c-0.3-1-0.6-1.9-0.9-2.7c2.7-6.5,3.5-13.1,1.4-20c0.4-0.3,0.8-0.6,1.3-1c-1.2-5.1-0.7-10.3-1.4-15.4
			c-0.3-2.2,1.1-2.9,1.9-4.3c-0.6-0.6-1.9-0.5-1.9-1.5c0-1.1,1-1.1,1.7-2.1c-1.5-2.1-0.4-4.7-0.6-7.1c-0.2-2.5-0.9-4.9-0.2-7.5
			c0.6-2.1-1.6-4.9,1.2-7c-0.3-0.8-0.6-1.7-0.9-2.6C257.1,245.9,257.7,244.3,258.4,242.3z"/>
	<path d="M254.9,301.9c-0.2,0.6-0.4,1.1-0.7,1.9c-1.7,0.8-3.6,1.6-5.3,2.4c-0.4,1.2-0.8,2.1-1.2,3c-0.7,0.5-1.5,1-2.5,1
		c-0.3-0.3-0.7-0.6-0.7-0.8c0.6-2.9-0.9-5.1-2.2-7.3c-1.5-2.5-2.2-4.7-2.1-7.8c-2-2.6-3.9-4.9-5.7-7.5c-0.3-0.4,0.3-1.4,0.5-2.1
		c0.9-0.8,2.3,1.3,2.5,0.3c1.3-3.1-1.6-2.4-1.8-4c0.1-0.3,0.2-0.8,0.4-1.7c-1.3-0.1-2.8,0.4-3.9-0.6c-1.2-1.8-1.3-4.4-3.7-5.3
		c-0.5-0.7,0-1.1,0.1-1.7c0.2-1.7-0.9-2.9-1.5-4.2c-0.4-0.9-1.5-1.3-1.4-2.9c0.1-1.3-0.8-3.4-1.9-3.9c-2.2-1.1-2-4-4.3-4.9
		c-1.3-0.5-0.2-2.4-0.4-3.6c-0.2-0.9-1.3-0.7-1.8-1.3c-1-1.5,0.8-2.7,0.5-4.3c-0.5,0.1-1.1,0.2-1.7,0.4c-1-0.3-0.8-1.7-1.5-2.1
		c-1.5-0.9,1.1-2.7-0.9-3.2c-1.4-0.4-0.9-2.3-2.5-2.8c-1.5-0.5-1.5-2.5-2.2-3.9c-1-1.9-1.8-3.9-2.8-6.2c0.4-0.7,1-1.7,1.4-2.4
		c-0.7-2.1-2.5-1.4-3.8-3.1c-0.2-1.2-2.4-2.7-1.1-5c-0.5-0.2-1-0.4-1.5-0.6c-0.9-0.9,0.1-1.8-0.1-2.7c-0.7,0-1.4,0.1-2.4,0.1
		c-1.1-4.3-4.7-7.7-4.3-12.6c0-0.5-0.3-1.3-0.7-1.6c-4-3-4-8-6.9-12.1c1.4,0.2,2,0.3,2.7,0.4c1.2-0.3,1-1.5,1.6-2.4
		c-2.1-0.6-4.1-0.3-6.8,0.6c2-4-2.3-6.4-1.2-10c-3-0.5-1.7-5.1-4.9-5.5c-0.4-5.6-2.4-10.7-4.9-15.6c-0.1-0.5-1-0.5-1.3-1.4
		c-0.7-2.1-2.4-3.8-1.7-6.3c-2.8-1-2.2-3.4-2.4-5.6c-0.2-1.6-1-3.2-3.5-3.9c1.5-2.2,0.7-4.8,2.5-6.8c-0.8-0.8-2.6,1.7-2.6-0.5
		c-0.5-1.7,1.3-1.5,1.3-2.6c-1-0.4-2-0.9-3.4-1.4c1-2,0-3.9-1-5.7c-2-3.8-2-7.7-1.7-11.8c-1.4-0.3-2.5-1.8-2.1-2.7
		c0.9-2.3-0.8-3.6-1.2-5.4c-1.6-7-5.1-13.4-5.6-20.8c-0.1-2,0.3-3.9,0-5.9c-1.3-1.1-2.9-1.8-2.4-4.4c0.6-3-0.7-6-1.1-9.1
		c-0.1-0.7-0.5-1.4-0.6-2.1c-0.4-2.4,1.7-4.6,0.4-7c-1.4-2.5,1.4-4.6,0.6-7c-0.6-1.4-1.2-2.8-2-4.5c1.8-1.4,0-4.2,2.5-5.7
		c-0.5-1.2-0.9-2.4-1.4-3.6c0.8-2,1.5-4,2.3-6c-0.3-0.2-0.7-0.3-1.3-0.6c-0.2-1.6,1.1-2.6,2-3.4c-0.3-1.3-1-1.6-1.8-1.7
		c0.6-6.2,3.4-11.6,5.4-17.2c1.2-0.6,2.6-0.9,2.8-2.6c1.5,0.6,1.3,2.2,2.1,3.3c-1.2,4.4-3.1,8.7-1.6,13.5c-1.9,3.4,0.8,7.4-1.3,10.8
		c0.7,2.3-0.5,4.6,0.2,7c0.5,1.6,0.1,3.5-0.5,5.4c-0.7,2.2,1.9,4.6-0.1,7c1.5,2.1,0.4,4.8,1.7,6.9c0.9,1.4,0.5,2.8,0.6,4.3
		c0.4,5.3,1.2,10.5,3,16c-2.2,2.6,0.2,5.7,0.5,8.6c0.2,1.7-0.7,4.3,0.9,5.2c2,1.1,1.2,2.7,1.6,4c1.5,4.9,2.4,10,4,15
		c0.6,2,0.8,4.4,1.8,6.3c1.1,2,1,4.4,1.4,6.4c1,6,3.9,11.1,6.4,16.4c1.2,2.6,0.8,5.5,2.1,8.1c1.1,2.3,3,4.6,2.7,7.4
		c-0.1,1.4,1.4,1.2,1.9,2.2c0.5,1.1-0.8,2.4,0.4,2.9c2.5,1.1,0.8,4.5,3.2,5.5c-0.5,1.3-0.2,2.5,0.4,3.8c2.1,4.6,3.4,9.7,6.3,13.6
		c3.6,4.9,5.3,10.5,8,15.7c0.9,1.7,1.5,3.6,2.4,5.3c0.9,1.6,0.8,3.9,2.9,4.7c-0.3,2,1,3.1,2.2,4.1c1.4,1.2-0.1,3.3,1.4,4.3
		s1.8,2.6,2.1,3.9c0.9,3.5,4,5.4,5.2,8.6c1.3,3.2,2.5,6.6,4.3,9.5c1.2,2,3.1,3.2,2.8,6.1c-0.2,1.8,2.6,2.7,3.4,4.9
		c1.5,4.4,4,8.4,5.5,12.8c1,2.9,4,4.6,4,7.8c2.9,2.3,3.3,5.9,4.8,8.9c1.5,2.9,2.7,6,4.1,9c1.3,3,2.8,6,4,9c0.4,1,1.9,1.3,1.9,1.7
		c0,0.9-0.3,1.7,0.1,2.7C253.1,300.4,253.9,301.2,254.9,301.9z"/>
    	</clipPath>
	</defs>
	<path class="st st1" d="M179.3,288.3l77.6,38.3l9.8-108l79.7,106l-75.1,33.7L170.7,134.6c0,0-35.3-99-12.7-145.3"/>
</g>
<g>
	<defs>
    	<clipPath id="SVGID_6_">
		<path d="M1308.6,256c0.1,0.8,0.2,1.5,0.3,2.2c0.5,0,1,0.1,1.7,0.1c1.6,1.1,2.9,3.3,5.4,4c0.1,0.1,0.2,0.8,0.7,1
			c0.5,0.2,0.9,0.6,1.1,1.2c0.2,0.6,0.8,0,1.1,0.6c0.3,0.8,0.8,0.6,1.4,0.7c0.3,0.5,0.5,0.9,0.7,1.4c2.2,0.3,3.1,3.3,5.2,3.7
			c0.1,0.5,0.1,0.9,0.1,1.1c0.4,0.6,0.8,0.8,1.2,1c0.3,0.2,0.5,0.2,0.8,0.6c0.6,0.6,1.2,1.5,2.2,1.2c0.2,0,0.5,0.1,0.6,0.3
			c0.5,0.6,0.8,1.4,1.6,1.6c0.6,0.2,1,1,1.4,1.6c0.5,0.7,1,1.1,1.6,1.6c0,0.7,0.6,0.9,0.6,1.6c0.6,0,1.1,0,1.2-0.7
			c1,0.6,1.8,1.1,2.2,2.4c0.1,0.5,0.5,0.5,0.6,0.7c0.9,0.6,1.7,1.4,2.3,2.4c-0.1,0.2-0.1,0.5-0.2,0.6c0.3,0.8,0.9,0.3,1.2,0.8
			c0.3,0.6,0.8,1,1.3,1c0.5,0,1,0.3,1.5,0.6c0.1,0.3,0.1,0.7,0.2,1.1c0.4,0.2,0.7,0.7,1.2,0.8c0.5,0.1,0.9,0.1,1.4,0.1
			c0.1,0.9,0.8,0.1,1,0.7c0.4,0.3,0.2,0.9,0.5,1.5c1,0,1.8,0.8,2.7,1.4s1.7,1.2,2.6,1.8c0.1,0.5,0.2,0.8,0.3,1.1
			c2.1,1.4,3.8,3.6,6,4.8c0.5,1,1.3,1.4,2,1.9c0.1,0.3,0.2,0.7,0.3,1.2c1.4,0.8,2.4,2.2,3.7,3.4c0.4,0.3,0.9,0.5,1.3,0.5
			c0.5,0,0.7,0.1,0.9,0.5c0.6,1.2,1.8,1.8,2.6,2.8c0.5,0.7,1.4,0.3,1.9,0.9c0.1,0.5-0.2,1,0.1,1.6c0.5,0.3,1.1,1.1,2,1
			c0.1,0.3,0.2,0.7,0.3,1.1c0.6,0.5,1.2,0.9,1.8,1.2c0.3,0.3-0.2,0.7,0,1c0.2,0.1,0.3,0.1,0.5,0.2c0.5,0,1.2-0.3,1.6,0.3
			c0.5,0.8,1.2,0.9,1.7,1.2c1.5,0.8,2.3,2.4,3.7,3.2c0.2,0.1,0,0.6,0.3,0.7c0.4,0.1,0.7,0,1.2,0.2c0.5,0.3,0.5,1.1,1.1,1.4
			c0.5,0.2,0.9,0.5,1.2,1.1c0.2,0.6,0.8,1,1.5,0.9c0.5-0.1,0.9,0.2,1.1,0.6c0.5,1,1.6,1.2,2.1,2.2c0.5,1,1.6,1.1,2.1,1.8
			c0.5,0.6,0.7,1.5,1.6,1.2c0.2,0.5,0.5,0.8,0.6,1.4c0.3,0.1,0.4-0.2,0.5-0.5c0.6,0.3,0.6,0.3,1.6,2.5c1.2,0.1,2.2,0.8,2.9,1.9
			c0.5,0.8,1.4,1,1.7,1.9c0.1,0.1,0.3,0.2,0.5,0.2c0.5-0.1,0.8,0.1,1,0.8c0.3,0.9,0.9,1.4,1.6,1.8c1.2,0.8,2.3,1.6,3.4,2.4
			c0.7,0.5,1.4,1,1.6,2.2c0.3-0.1,0.5-0.2,0.9-0.5c0.7,0.7,1.6,1,2.2,2c0.7,1,1.9,1.5,2.8,2.2c0.5,0.5,1.2,0.8,1.6,1.6
			c0.4,0.6,0.9,1.1,1.6,1.4c0.5,0.1,1.2,0.7,1.3,1.5c0.6-0.2,0.5-1,1-1.2c0.4-0.1,0.7-0.2,1.1-0.3c1.4,1.4,3.4,1.7,4.3,4.1
			c0.5,0.3,1.2,0.8,1.7,1.2c0.1,1.4,1.2,2,1.3,3.4c0.2,0,0.5,0,0.7,0c0.2,0.8,0.5,1.4,0.2,2.3c0.5,0.3,0.7,1,1.2,1.6
			c-0.8,1.5-1.1,3.3-1.6,5.1c-0.5,0.3-1.1,0.5-1.7,0.3c-0.2,0.3-0.4,0.8-0.5,1.1c-0.8,0.2-1.7,0.6-2.7,0.8c-1.3-0.6-2.1-1.8-2.8-3.3
			c-0.4-0.7-0.6-1.6-1.5-1.7c-0.3-0.1-0.3,0.6-0.6,0.5c-0.4-0.6-0.6-1-0.6-1.9c-0.1-0.9-0.8-1.6-1.5-2.2c-1.4,0.3-1.6-1-2.1-2.2
			c-1.5,0.3-2.4-0.8-3.5-2c0-0.1-0.1-0.5-0.2-0.9c-0.5-0.3-1.1-0.8-1.6-1.1c-0.2,0-0.3,0.2-0.4,0.6c-0.5-0.1-1-0.6-1.5-0.9
			c-0.2-0.3,0-0.5,0.1-0.7c-0.5-1-1.3-0.6-2.1-0.7c-0.8-0.6-1.7-1.2-2.7-1.9c-0.2-0.8-0.8-1.2-0.6-2.4c-1,0.7-1.6-0.7-2.6-0.2
			c0-1.5-1.6-1-1.6-2.5c-0.4,0-0.5,0.1-0.7,0.1c-0.4-0.1-0.3-0.6-0.5-0.8c-0.1,0.1-0.2,0.3-0.4,0.6c-0.5-0.3-1.1-0.8-1.7-1.2
			c0-0.3,0.3-0.1,0.5-0.3c-0.3-0.6-0.6-1.1-0.9-1.7c-0.1-0.3-0.3,0-0.3,0c-0.7,0-0.5-1.2-1.1-1.2c-0.4-0.2-0.4,0.6-0.7,0.5
			c-0.2-0.1-0.4-0.2-0.7-0.6c-0.1-0.5-0.2-1.1-0.2-1.7c-0.7,0-0.6-1-1.2-1.2c-0.1,0.2-0.3,0.3-0.4,0.5c-0.1,0-0.3,0-0.3,0
			c-0.3-0.3-0.8-0.3-0.9-0.9c-0.1-0.6-0.7-0.9-0.9-0.8c-1.1,0.3-1.5-0.7-1.8-1.5c-0.4-0.8-0.8-1.1-1.6-1.1c-0.2-0.5-0.5-0.7-0.6-1.4
			c-1.4-0.8-2.5-2.2-4.1-2.3c-0.2-0.8-0.3-1.6-0.7-2.2c-0.9-0.6-1.6-1.6-2.7-1.6c-0.5,0-1.2-0.6-1.4-1.4c-2.1-0.5-3.3-2.2-4.5-4.1
			c-1.8-0.5-2.9-2-3.9-3.8l-0.1-0.1c-0.2,0-0.4,0.1-0.5,0.1c-0.5-0.1-0.3-0.7-0.5-0.9c-1.1,0.1-1.8-0.9-2.8-1.5
			c-0.2-0.9-0.9-1-1.4-1.5c-0.6-0.6-1.5-0.9-1.9-1.8c-0.3-0.6-0.9-0.6-1.5-0.5c-0.1-0.5-0.3-0.9-0.4-1.4c-1.2-0.1-2-0.7-2.6-1.8
			c-0.2-0.3-0.2-0.8-0.5-1c-1.8-1-3-3.2-4.9-4c-1.6-2.9-2.4-3.8-4.7-3.8c-0.1-0.7-0.5-1-0.8-1.6c-0.4,0.1-0.8,0.2-1.1,0.2
			c-0.5-0.3-0.3-1-0.6-1.5c-0.8-0.7-2.1-0.6-3.1-1.8c0.2-0.7-0.8-1.1-0.5-2.2c-0.5-0.7-1.4-0.7-1.6-1.7c-0.6-0.3-0.9,0.3-1.4,0.6
			c-0.5-0.7-0.8-1.4-0.9-2.2c-0.7-0.1-1.5-0.5-2.1-1c-0.7-0.6-1.6-0.9-1.8-2c-0.6,0-1.2-0.2-1.6,0c-0.5-0.3-1-0.7-1.6-1.1
			c-0.1-0.3-0.1-0.7-0.2-1.1c-1-0.1-1-2.3-2.7-1.5c-0.1-0.6,0-1.4-0.2-1.4c-0.7-0.3-1-1.4-1.6-1.8c-0.5-0.3-1.1-0.7-1.5-1.5
			c-0.3-0.8-1.1-0.7-1.7-0.7s-1-0.1-1.2-0.9c-0.2-0.1-0.5,0.2-0.7-0.1c-0.4-1.5-1.3-2.4-2.8-1.9c-0.8-0.6-1.6-1.1-2.6-1.8
			c-0.1-0.5-0.1-1.1-0.2-1.8c-1,0.6-1.4-0.9-2.2-0.6c-0.4-0.9-1.1-1.1-1.8-1.8c0-0.2-0.1-0.7-0.1-0.9c-0.4-0.8-0.8-0.1-1.1-0.5
			c-0.6-0.7-1.3-1-1.9-1.8c-1.2-1.6-2.7-2.5-4.7-2.4c-0.5-0.3-1-0.7-1.6-1.1c0.1-0.6,0.1-1.2,0.2-1.8c-0.5-0.9-1.4-0.5-2-1
			c-0.5-0.5-0.7-1.5-1.6-1.5c-0.5,0.2-0.2,0.7-0.3,1c-0.5-0.2-1-0.5-1.3-1.2c-0.5-1.1-0.5-1.1-1.7-1.2c0.1-0.9-0.3-1.6-0.7-2
			c-0.5-0.3-0.9,0.1-1.3,0c-0.3-0.5-0.1-0.9,0-1.5c-0.5,0.2-1,0.5-1.6,0.7c0.1-0.6,0.1-0.8,0.2-1.1c-0.2-0.3-0.5-0.5-0.7-0.6
			c-0.4,0.2-0.6,0.7-1.1,0.7c-0.5-0.3-1-0.7-1.6-1.1c-0.1-0.6-0.3-1.2-0.4-1.7c-0.5-0.6-0.5,0.2-0.9,0.2c-0.5-0.1-0.8-0.7-1.4-0.2
			c-0.2-0.7-0.3-1.1-0.5-1.6c-1.1-0.6-2.7,0.1-3.2-2.2c0-0.3,0.7-1.1-0.2-1.8c-0.4,0.3-0.7,0.7-1.2,1c-2.3-1.2-3.1-1.9-3.7-2.9
			c-0.3,0.1-0.5,0.2-0.8,0.3c-0.5,0-0.7-0.6-1-1.2c-0.9,0.5-1.2-0.5-1.7-1.1c-0.3-0.5-0.6,0-0.8-0.1c-0.2-1-0.4-1.8-0.6-2.8
			c-0.9,0.7-1.7,0.8-2.7,1c-0.6-0.6-1.6-0.8-2-1.9c-0.4-0.8-1.4-0.2-1.9-0.9c0-0.8,0.1-1.8-0.6-2.6c0.5-0.9,0.7-1.9,0.5-3.2
			c-0.1-0.6-0.1-0.6,0.7-1.2c-0.4-0.7-0.1-1.4-0.2-2.2c0.1,0,0.3-0.1,0.4-0.1c0.2-0.2-0.2-0.7,0.1-0.9c0.4-0.5,0.9,0.5,1.3-0.2
			c0.2-0.3,0.4-0.8,0.5-1.1c0.6-0.2,1.2,0.2,1.8,0c0.1,0.2,0.1,0.3,0.2,0.6c0.2,0,0.4-0.1,0.5-0.1c0,0.1,0,0.2,0.1,0.2
			c1.1,1,2,2.5,3.4,3.2c0.7-0.3,0.5,1.1,1.1,0.9s0.9,0.1,1.3,0.5c0.2,0.1,0.4,0.2,0.5,0.3c0.3,1,0.8,1.2,1.6,1.1
			c0.3,0,0.6,0.5,0.9,0.6c0.1,0.5,0.2,0.8,0.3,1.1c0.9,0.1,1.6,0.6,2.1,1.5c0.5,0.7,1,1.1,1.7,1c0.8-0.1,2.6,1.1,3.4,1.8
			c0.5,0.5,1.1,0.8,1.6,1.2c0.5,0.5,1.1,0.8,1.5,1c0.6,0.9,0,1.5,0.1,2c0.8-0.2,1.5,0,2.1,0.5c1.3,0.9,2.6,1.8,3.8,2.7
			c0,0.3-0.1,0.6-0.1,0.8c0.5,1,1.2,0.2,1.6,0.2c0.5,0.3,0.3,1,0.6,1.5c1.3-0.2,2.4,1,3.8,1.2c0.2,0,0.2,0.6,0.5,0.8
			C1306.2,255,1307.2,255.9,1308.6,256z M1293.3,250.6c0.1,0.8-1.1,0.2-0.7,1.2c0.9,0.8,2,0.8,3.1,1.2c0.1,0.7,0.4,1,1,1
			c-0.1-0.3-0.2-0.7-0.2-1c-0.6-0.5-1.3-0.9-1.9-1.4c-0.7-1,0.2-2.6-0.7-3.5c-0.6,0.1-0.5,1.2-1.1,1.2c-0.5-0.1-0.3-0.9-0.7-1
			c-0.5,0-1,0.3-1.1,1c0.4,0.3,0.4,1,0.8,1.2c0.2,0.1,0.3,0.3,0.6,0c0.2-0.1,0.1-0.8,0.5-0.7
			C1293.1,250.2,1293.3,250.2,1293.3,250.6z M1356.2,304.6c0.6-0.6,1,0.3,1.6,0.1c0-0.6,0.1-1,0.1-1.7c-1-0.1-0.5-1.9-1.5-1.8
			c-0.7,0.2-1.5,0.5-2.2,0.7C1355,302.4,1355.6,303.3,1356.2,304.6z M1347.7,296.4c0.8,0.7,0.5,2.2,1.3,2.9c0.3-1,0.3-2.2,1.3-2.5
			c-0.1-0.2-0.1-0.6-0.2-0.8c-0.2,0-0.5,0-0.5,0.1c-0.5-0.3-0.2-1.2-0.8-1.6c-0.3,0.2-0.7,0.5-1.3,0.7c-0.1,0.1-0.5,0.5-0.4,1
			C1347.2,296.7,1347.5,296.5,1347.7,296.4z M1337.4,288.8c0.5,0.7,1.2,0.6,1.9,0.7c0.2-0.2,0.4-0.6,0.5-0.8c0.5-0.1,0.6,0.6,1,0.3
			c0.2-0.3,0.4-0.6,0.4-1c-0.5-0.3-1.1-0.8-1.6-1.1c-0.6,0.2-1.3,0.6-1.9,0.3C1337.2,287.7,1337.1,288.2,1337.4,288.8z
			 M1365.4,309.5c-1.1-0.1-1.6,0.8-2.2,1.4c0,0.2,0.1,0.5,0.2,0.7c0.5,0.5,1.2,0.8,1.7,1.2c0.5-0.3,0.9-0.8,1.4-1
			C1366.5,310.5,1365.5,310.2,1365.4,309.5z M1351.2,299.2c0.2,0.7,0.4,1.2,0.5,1.8c1.3,0.2,1.3,0.2,2.7-1.5
			c-0.6-0.2-0.7-0.9-1.1-1.4C1352.4,298.4,1351.9,299.2,1351.2,299.2z M1331,280.2c0.1-0.3,0.3-0.5,0.2-0.8c-0.5-0.1-0.8,0.5-1.3,0
			c-0.1-0.2-0.1-0.5-0.2-0.7c-0.2,0.3-0.5,0-0.6,0.5c0.2,0.5,0.7,0.3,0.7,0.9c-0.2,0.5-0.5,0.8-0.5,1.4c0.1,0.2,0.1,0.5,0.2,0.7
			c0.7,0.1,1.4,0.2,2.2,0.5c-0.4-0.7,0.3-1,0.2-1.6C1331.4,280.7,1331.2,280.5,1331,280.2z M1403.2,344.9c-0.4-0.3-0.4-1.1-1.1-1.5
			c-0.5,0.2-1-0.1-1.5-0.7c-0.2-0.5-0.1-1.1-0.5-1.4c-0.6,0.3-0.3,0.9-0.2,1.4c0.3,0.3,0.8,0.3,0.9,0.9c-0.1,0.3-0.3,0.7-0.4,1
			c0.5,0.5,1.1,0.8,1.6,1.2C1402.3,345.2,1403,345.5,1403.2,344.9z M1392.5,335.8c0.5-0.8,1.2-0.8,1.6-1.6c-0.3-0.9-1-0.5-1.5-0.7
			c-0.2-0.3-0.1-1-0.6-0.8c0.1,0.9-0.3,1.6-0.9,2c0.1,0.3,0.2,0.6,0.2,0.8C1391.7,335.2,1392.1,335.7,1392.5,335.8z M1317.8,268.7
			c-0.9,0.1-0.7-1-1.3-1.2c-0.2-0.1-0.3-0.2-0.5-0.1c-0.3,0.6-0.5,1.1-0.7,1.7c0.6,1.5,0.9,1.6,1.7,0.6
			C1317.1,269.2,1317.4,269.2,1317.8,268.7z M1396.9,340.6c0.2-0.6,0.5-0.9,0.5-1.5c-0.1-0.2-0.1-0.5-0.2-0.7c-1.5,0-1.8,0.2-1.8,1
			c0.2,0.3,0.4,0.7,0.5,1C1396.3,340.1,1396.6,340.4,1396.9,340.6z M1323.6,273.7c-0.5-0.6-1-1.1-1.7-0.6c0.2,0.9,0.4,1.9,1.1,2.5
			C1323.7,275.3,1323.3,274.4,1323.6,273.7z M1360.2,307.5c0,0.5,0.2,1.1,0.8,1.4c0.2-0.2,0.6,0,0.8-0.6c-0.3-0.3-0.4-1-0.8-1.4
			C1360.8,307.1,1360.3,306.9,1360.2,307.5z M1335,281.6c-0.5,0.9-1.7,0.3-1.6,2c0.8,0.3,1.3-0.6,1.9-0.9
			C1335.1,282.3,1335.1,282.1,1335,281.6z M1383.2,326.2c-0.7,0.6-0.6,1.1-0.3,1.9c0.4,0,0.8,0,1.2,0.1
			C1384,327.3,1383.8,326.8,1383.2,326.2z M1409.4,350.1c-0.5-0.3-0.8-1-1.4-0.6c-0.5,0.3-0.3,1-0.1,1.6
			C1408.3,350.7,1408.9,351,1409.4,350.1z M1312.9,265c-0.6-0.7-1.2-0.8-1.6-0.1c0,0.5,0.3,0.6,0.5,0.7c0.3,0.1,0.5,0.5,0.7,0.3
			C1312.6,265.5,1312.7,265.3,1312.9,265z M1318.1,273.7c0.9-1.5,1-1.5,0.9-1.9c-0.1-0.1-0.2-0.1-0.4-0.2c-0.5,0.3-0.5,1.4-1.2,1.6
			c0,0.1,0,0.1,0.1,0.2C1317.7,273.3,1317.9,273.6,1318.1,273.7z M1305.8,260.8c-0.4,0-0.7,0.1-0.8-0.5c-0.1-0.3-0.6-0.6-1.1-0.3
			c-0.1,0-0.2,0.1-0.2,0.2c0.2,0.3,0.4,0.7,0.5,1c0.5-0.5,0.8,0.5,1.3,0.2C1305.6,261.2,1305.6,261.1,1305.8,260.8z M1369.6,313.9
			c-0.3,0.3-0.6,0.1-0.7,0.3c-0.2,0.6,0.1,0.9,0.1,1.2c0.3-0.1,0.7,0,0.9-0.6C1369.8,314.7,1369.7,314.4,1369.6,313.9z
			 M1375.1,323.2c0.5-0.1,0.5-0.5,0.6-0.8c0.1-0.2,0.6,0,0.5-0.6C1375.1,321.8,1375.1,321.8,1375.1,323.2z M1336.7,289.6
			c-0.3-0.5-0.5-0.8-1-0.5c-0.2,0.5,0,0.8,0.1,1.2C1336.1,290.2,1336.5,290.3,1336.7,289.6z M1411.9,350.8c-0.3-0.2-0.7-0.6-0.7-0.6
			c-0.3,0.3-0.4,0.7-0.6,1.2C1411,351.6,1411.5,351.7,1411.9,350.8z M1287.7,246.6c-0.2-0.5-0.5-0.7-0.9-0.7c0.1,0.3,0,0.9,0.5,1
			C1287.6,247.2,1287.6,246.8,1287.7,246.6z M1369.9,319.2c0.3,0.2,0.5,0.7,1,0.6c-0.1-0.3,0-0.9-0.4-1
			C1370.1,318.5,1370,318.9,1369.9,319.2z"/>
    	</clipPath>
	</defs>
	<line class="st st3" x1="1256.5" y1="219.8" x2="1444" y2="375.8"/>
</g>
<g>
    <defs>
    	<clipPath id="SVGID_8_">
    		<path d="M1251.8,184c-0.8,1.1-1.7,1.9-2.2,3.3c-0.6,1.7-1.8,3-4.1,2.4c-0.8-0.2-1.8,0-2.7,0.2
    			c-1.2,0.2-1.9-1.2-3.1-0.8c-0.8-0.8,0-1.7-0.1-2.5c-0.4-0.4-0.8-0.3-1.1-0.1c-0.3,0.5,0.2,1,0.2,1.7c-1.4-0.2-2.8-0.1-4,1.1
    			c-0.4-0.2-0.6-1.1-1.5-1.3c-1.3,0.4-2.7,0.8-4,1.1c-0.6-0.2-0.6-0.5-0.7-0.8c-1.4-1-1.7,1-3.2,1c-1.9-0.8-4.3-1.7-6.9-1.7
    			c-1.3,0-2-0.9-3.2-1.3c-0.8,0.4-1.4,1.8-2.8,1.3c-0.6-0.1-0.2-1.1-0.9-1.4c-1.1-0.3-1.1,1.6-2.5,1c-0.5-0.2-0.7-1.4-1.8-1.2
    			c-0.5,0-0.5,0.6-0.8,0.8c-0.3-0.1-0.5-0.2-0.8-0.4c-0.1,0.2-0.2,0.4-0.3,0.6c-0.1,0-0.2,0.1-0.2,0.1c-1.7-1-3.4-2-4.5-3.8
    			c-0.1-0.2-0.2-0.3-0.3-0.5c-0.5-0.1-0.8,0-1,0.5c-0.3,0.9,1.8,0.8,0.9,2c-1.2,0.3-1.9-0.9-2.9-1.1c-0.7,0-0.7,0.6-1.2,1
    			c-0.9-0.2-1.9-0.5-3,0.2c-0.7-0.5-1.5-1.1-2-1.4c-2.6,0.9-3.9-2.1-5.6-1.6c-1.1,0.1-1.1,0.6-1.4,0.9c-0.6-1.6-2-1.1-3.2-1.4
    			c-1.5-0.4-2.2,0.7-3,1.3c-1.8-1.5-3.5-2.9-5.3-4.3c-0.3,0.2-0.2,0.7-0.7,0.8c-0.7,0.2-1.1-0.6-2.3-0.5c-0.8,0.5-2.5,0-4,0.2
    			c-0.4-0.5-0.7-1.2-1.9-1.2c-0.2,0-0.8,0.2-1.3,0.4c-0.8-0.6-2-0.6-2.2-1.9c-0.7,0.6-1.2,1.2-2,1.1c-1.4-0.6-1.8-2.2-3.3-2.8
    			c-0.5,0.1-1.2,0.3-1.9,0.4c-1.2-0.5-1.7-2-3.5-2.2c-0.4,0.1-1.1,0.2-1.3,1c-0.7-0.7-1.9,0.1-2.4-1c0.1-0.1,0.2-0.4,0.3-0.6
    			c-0.4-0.2-0.7-0.4-1.1-0.6c-0.4,0.3-0.1,0.7-0.2,1.2c-1.2,0.3-2.5,0.7-3.9,1.1c-1-0.4-1.6-1.5-2.4-2.4c-0.5,0.2-1.1,0.3-1.8,0.5
    			c-1.7-1.5-4.4-1.1-6-3.4c-0.8,0-1.8,0.6-2.5-0.3c-0.3,0.5-0.5,0.8-0.6,1c-2.4-1.7-4.9-2.5-7.8-1.7c-0.3-0.9,0.8-0.4,0.8-1.1
    			c-0.4-0.3-0.8-0.8-1.6-0.6c-0.8,0.2,0.3,1.2-0.6,1.5c-1.1,0.2-1.6-0.5-1.9-1.4c-0.6,0.2-1,0.3-1.4,0.4c-0.6-0.3-0.8-1.2-1.6-1.4
    			c-0.5,0-0.4,0.9-1,0.8c-1.3,0.1-0.2-2.2-1.5-1.7c-1-0.4-0.8,0.9-1.6,0.7c-0.4-0.1-0.9,0.4-1.5,0.1c0.1-0.3,0.2-0.5,0.3-0.8
    			c-1.7-1.4-4.1-1.3-6-2.4c-0.5-0.3-0.7-0.1-2,1c-0.7-1.9-2.5-1.9-4-1.8c-1.7,0.2-3.1-0.3-4.6-0.6c-0.4-0.1-0.8-0.1-1.1-0.1
    			c-0.5-0.2-0.2-0.9-0.4-0.9c-1.1-0.1-1.2,0.4-1.4,0.7c-1.5,0-2.6-1-3.9-0.9c-0.1-0.5-0.3-0.9-0.4-1.3c-1.8,0.1-3.6-0.4-5.4-0.8
    			c-1.9-0.3-3.5-1.5-5.1-2.9c-1.1,0.4-3-1.1-3.9,1.2c-2.5-1.7-5.1-2.6-7.5-4.1l-2.7-0.4c-0.4,0-0.8,0.4-1.2,0.1
    			c-0.1-0.3-0.3-0.5-0.4-0.8c-2.5,0.5-4-1.7-6.2-2.3c-0.4,0-0.6,0.3-0.8,1c-1.5-1.4-3.4-1-5-1.2c-2.2-0.2-2.7-2.5-5-2.6
    			c-0.1,0-0.7,0.2-1.3,0.4c-0.5-0.1-0.5-0.6-0.7-0.9c-1.8-0.6-4,0.1-5.3-1.9c-0.2,0.3-0.5,0.6-0.9,1.1c-0.8-0.9-1.5-1.7-2.6-1.9
    			c-0.5,0.4-1,1-1.9,0.9c-0.2-0.5-0.3-0.9-0.5-1.4c-0.3-0.3-0.6-0.1-0.9,0c-1.3,0.4-2.4,0.4-3.3-0.8c-1.8-0.1-3.8,0.9-5.6-1.1
    			c-0.9-0.1-2.4,0.7-2.7-1.3c-0.6,0.2-1,0.3-1.4,0.4c-1-0.6-2-1.1-3-1.7c-0.5,0.2-0.4,1-0.5,1c-1.5-0.3-0.9-1.5-2-1.8
    			c-0.6-0.1-0.4,1-1.5,1.1c-0.3-0.3-0.9-0.9-1.8-1.8c0-0.7-1.3-1.3-2.2-1.4c-1.2-0.1-1.8-0.9-2.8-1.1c-0.5,0.5-1.1,1.2-1.9,0.9
    			c-1.1-0.5-2.2-1.2-3.4-0.8c-1.1,0.4-2.2-0.4-3.2,0.1c-0.7-1.3-2.1-1.5-3.1-2.3c-0.4,0.1-0.8,0.2-1.2,0.3c-0.7-0.2-0.4-1.1-0.9-1.5
    			c-0.2-0.2-0.3-0.1-0.4,0.2c-0.3,0.7-1.2,0.9-1.5,0.7c-1.6-1.2-3.9-0.4-5.3-2.1c0-0.3,0.9-0.9-0.1-1.4c-1.1,0.4-0.2,1.7-0.9,2.1
    			c-1.1,0.5-0.8-0.8-1.5-0.9c-0.4,0.1-0.8,0.2-1.2,0.3c-0.6-0.4-0.8-1.2-1.7-1.4c-0.7,0.2-1.6,0.4-2.4,0.7c-0.6-0.5,0.1-0.7,0-1.1
    			c-0.7-0.4-1.3,0.3-2.3,0.3c-1.8-1.9-4.5-2.4-7.6-3c-0.3,0.1-1.1,0.3-2.2,0.6c-0.6-0.4-1.3-1-2-1.4c-0.6,0.2-1,0.3-1.3,0.4
    			c-0.6-0.3-0.3-1.4-1.4-1.2c-2.6,0.6-4.8-0.2-6.6-2.2c-0.5,0.6-1,1.2-1.9,0.9c-0.1-0.3-0.3-0.5-0.5-0.8c-0.7-0.3-1.6,0.7-2.3-0.2
    			c-0.7,0.5-1.3-0.6-2-0.1c-0.2-0.3-0.4-0.6-0.9-1.2c-0.2,0.7-0.3,1.3-0.4,1.8c-1.5-0.4-2.1-1.5-2.8-2.5c-0.7,0.2-1.4,0.3-2,0.4
    			c-0.8-0.2-1.1-0.9-1.6-1.4c-0.4,0.6-1,1-1.6,1c-1.1-0.2-1.4-1-1.8-2.2c-0.5,0.7-0.8,1.2-1.2,1.7c-1.4,0.2-2.4-1.9-4-0.8
    			c-0.6-0.7-1.1-1.3-1.7-2c-0.8,0.1,0.1,0.9-0.3,1.1c-1.3,1.3-2.4-0.7-3.6-0.3c-1.5-1.7-3.4-1.2-5.5-1c-0.6-0.3,0-1.8-1.4-1.8
    			c-2.5,0.5-5.2-0.4-7.8,0.6c-1.9-1.3-4.5-0.7-6.1-2.6c-0.8,1.5,0.1,2,0.7,2.9c-2,0.1-3.9,0.4-5.8,0c-1-0.8-1.8-1.7-2.2-2.8
    			c-1.6,0.5-1.1-1.7-2.3-1.8c0.6-1,2.4-0.3,2.5-1.9c-1-0.8-1.2-1.8-0.3-2.9c0.6-0.4,1,0.1,1.3,0.2c0.8,0,0.8-0.7,1-0.8
    			c0.7-0.3,1,0,1.5,0.2c0.2-0.6,0.4-1.1,0.6-1.5c0.7-0.2,1.1-0.3,1.5-0.4c0.7,0.4,0.5,1.3,0.8,1.9c0.5,0.3,0.9,0.9,1.6,0.6
    			c1-0.5-0.4-1.3,0.3-2c0.2,0.1,0.5,0.2,0.7,0.3c0.7-0.8-0.2-1-0.6-1.3c0.2-0.5,0.5-0.6,0.8-0.5c1.1,0.2,1.3,1.5,2.3,1.8
    			c1.1,0.4,0.5,1.7,1.3,2.3c1.1,0,0.9-1.3,1.6-1.6c0.6-0.3,1.3-0.4,1.7-1.4c1.2,0.8,2.3,0.1,3.4-0.1c0.4-0.1,1-0.5,1.2,0.3
    			c-0.9,0.1-1.3,0.6-1.5,1.5c0.7,0.2,1.3,0.1,1.7-0.6c-0.1-0.3-0.2-0.6-0.2-0.9c0.4-0.2,0.6,0.1,0.9,0.2c0.6,0,0.5-1.1,1.4-0.7
    			c-0.1,1.1-0.2,2.1-1.3,3.5c1.6-0.4,2.1-1.3,2.9-1.9c1.4-0.1,2.9,1.5,4.5,0.5c0.9,0.7,2,0.7,3,1c0-0.4,0.1-0.8,0.1-1.2
    			c0.2-0.1,0.5-0.1,0.8-0.2c0.6,0.6,0.5,1.3,0.8,2c-0.4,0.8-1.2,1.5-0.6,2.5c0.2,0.6,0.6,0.4,1,0.3c0.7,0.2,0.4,1.3,1.4,1.2
    			c-0.2,0.4-0.3,0.6-0.4,0.8c0.2,0.2,0.5,0.3,0.6,0.2c1-0.4,0-1.3,0.7-1.7c0.2-0.6-0.7-0.3-0.6-0.6c-0.4-1,0.6-1.4,0.5-2.3
    			c-0.2-0.4-0.8,0.4-1.2-0.1c0-0.2-0.1-0.4-0.2-0.6c0.1-0.1,0.2-0.3,0.3-0.4c0.8-0.7,1.7,0,2.6,0c1.2-0.1,2.4,0.1,3.5-0.5
    			c1.6,1.4,4.3,1.2,5.3,3.5c0.8,0.4,1.3-0.4,2.1-0.2c1.4,0.2,2.1,1.5,3.1,2.3c0.9-0.3,1.8-0.5,2.6-0.7c0.3,0.4,0.5,0.7,0.8,1
    			c0.3-0.3,0.5-0.5,0.8-0.8c1.2,0.3,2.7,0,3.3,1.7c1.3-0.7,2.7-0.2,4.1-0.4c0.9,1.5,2.3,2.5,4,3.2c0-1.3,1.5-1.7,1.5-2.9
    			c0.7-0.2,1.3-0.4,2-0.6c1-0.1,1,1.5,2.3,1.4c0.6-0.1,1.8,0.4,2.1,1.5c0.3,1,1.2,1.4,1.8,2.2c-0.3,0.4-0.6,0.9,0,1.4
    			c1-0.5,1.5-1.4,1.6-2.3c1.1-0.1,0.9,0.6,1.1,1c0.2,0.3,0,0.8,0.6,1.1c0.1-0.2,0.3-0.4,0.6-0.8c0.4,0.4,0.8,0.8,1.3,1.2
    			c0.3-0.5,0.4-0.7,0.6-1.1c1.4,1.3,3.5,0.6,5.2,2c0.7-1.3,2.1-1.4,3.3-1.8c0.7,1.3,2.7,0.7,3.1,2.3c0.8-0.2,1.6-0.5,2.5-0.7
    			c0.9,0.6,1.9,1.2,2.3,1.5c1.3,0.4,2-0.4,2.6,0.3c0.5-0.3,0.7-1.3,1.2-1.1c1.2,0.2,1.6,0.9,2.5,0.7c-0.7,1.7,0.2,3,0.7,4.5
    			c0.1-0.9,0.9-0.8,1.3-1.2c0.2-1.5-0.9-2.3-2-3.3c-0.1-0.5,0.3-1,0.7-1.4c2.1,0.8,2.1,0.8,4.2,3.1c1.4,0.3,3.2,0.2,4,1.4
    			c0.7,1.1,1.3,1.9,2.6,1.9c0.7,1.7,2.3,1,3.6,1.5c0.2,0.6,0.4,1.3,0.6,1.9c0.8,0.1,1.5,0.1,1.9-1c1.4,1.2,4,0.4,4.4,3
    			c1,0.5,2-1,3.1,0.5c-0.2,0.7-0.2,1.7,0.8,2.8c0.2-0.7,0.3-1.3,0.5-2.2c0.9,1.2,1,2.4,2.2,2.5c0.4-0.3-0.3-1,0.3-1.3
    			c0.2,0,0.4-0.1,0.6-0.1c0.6,0.3,0.4,0.9,0.7,1.3c0.7-0.1,1.5,0.7,2.3-0.1c0.6,0.1,1.3,1.2,2.3,0.5c0.4,1,1,0.2,1.5,0.2
    			c0.8,0,0.5,1.2,1.3,1.1c0.3,0.5-0.8,1.1-0.1,1.4c0.5,0.4,0.8,0.2,1.3,0.1c-0.4-1.4-0.8-2.7-1.1-4.1c2.1-0.6,2-0.6,2.9,0.6
    			c0.9,1.2,1.6,2.4,1.1,4c-0.1,0.2,0.2,0.6,0.3,0.8c0.6,0.3,1-0.1,1.7-0.2c-0.4-1.6-0.9-3.1-1.2-4.4c0.4-0.6,0.6-1,0.8-1.3
    			c0.3-0.1,0.6-0.2,0.9,0c1.2,0.8,2.8,0.7,3.8,2.1c0.6,0.9,2,1.1,2.7,0.9c1.8-0.5,3.3,0.2,4.9,0.7c0.2,0.1,0.4,0,0.6,0.1
    			c0.2,0.4,0.4,0.9,0.5,1.3c0.6,0.3,1-0.2,1.5-0.2c0.7,0.5,0.9,1.5,2.1,1.4c0.8-0.1,1,1.5,1.8,1.3c0.9-0.3,1.8,0.3,2.6,0.1
    			c0.8,1.2,2.1,1.5,3.4,2.4c0-0.6-0.1-0.9-0.1-1.3c0.9-0.3,1.4,1,2.3,0.5c0.8-0.4,1.5,0.6,2.3,0.3c0.3,0.4,0.1,1,0.6,1.4
    			c0.1-0.1,0.3-0.2,0.3-0.3c-0.2-1.9-0.2-1.9,1.6-2.7c0.3,1.2,1.9,1.2,2.4,2.5c0.6-0.5,1.1-1.1,1.9-1c0.5,0.3,0.4,0.9,0.5,1.2
    			c1.4,1.2,3,1.4,4.5,2c0.1,0.4,0.2,0.8,0.3,1.2c1.4,1,3.2,1.5,4.5,3c0.7-0.4,1.7-0.2,2.7-0.4c1.1-0.2,1.9-0.1,2.6,1.2
    			c0.5-1.3,2-1.2,2.6-2.2c0.8,0.2,1.1,0.9,1.5,1.4c0.8-0.2,1.6-0.4,2.5-0.7c0.8,0.5,1.7,1.1,2.7,1.8c0.1,0.4,0.4,1,0.7,1.9
    			c0.8-0.7-0.3-1.4,0.2-2c0.6-0.1,1,0.9,1.6-0.1c0.3,0.8,0.5,1.2,0.5,1.4c1,0.7,1.9,1.2,2.6,1.7c1,0.1,0.9-1,1.7-1
    			c0.7,0.3,0.9,1.5,2,1.3c0.5-0.1,0.5-0.6,0.8-0.9c0.9,0.7,0.6,1.9,1.2,2.7c0.3,0.2,0.7,0.4,1,0.5c0.6,0,0.8-0.5,1-1
    			c0.7,0.7,0.6,1.5,0.9,2.1c0.3,0.2,0.8,0,0.8,0.1c0.9,1.2,2.4,1.3,3.6,1.3c1.6,0,3,0.6,4.4,1c0.5,0.5-0.3,0.7,0,1.1
    			c0.3,0.3,0.5,0,0.9,0c0.4-0.9-0.8-2.1,1-2.8c3.3,1.2,6.5,3.5,9.9,5.3c0.9,0.3,1.5-0.1,1.9-0.8c0.7,1.2,2.1,1.6,3.1,2.3
    			c0.6-0.2,1.2-0.3,1.8-0.5c0.3-0.5,0.6-1,0.9-1.4c2,0.4,1.2,1.9,1.1,3c0.4,0.4,0.7,0.3,1.2,0.1c0.2-1.5,0.3-3.1,0.5-4.9
    			c0.4,0.5,0.6,0.8,0.8,1.2c1.2,0.1,2.1-0.5,2.8-1.5c1.3,1.2,3.4,1.2,4,3.3c1.2,0.3,2.5,0.5,3.1,1.8c1.4,0.3,3,0.3,4.2,1.5
    			c0.3,1,0.6,2.2,0.9,3.4c0.4,0.2,0.7,0.4,1.2,0.7c0.2-1.3-0.6-2.3-0.7-3.7c1.5-0.8,2.9,0.1,4.3,0.6c0.1-0.2,0.2-0.4,0.3-0.5
    			c1.5-0.2,1.1,1.8,2.2,2.1c-0.3,1-0.2,1.9,0.4,2.7c0.5,0.2,1-0.1,1.4-0.3c0.5-0.5-0.5-1.3,0.7-1.6c-0.4-0.2-0.6-0.3-0.8-0.4
    			c0.4-1.1-0.7-2.5,0.9-3.3c1.9,1,3.8,1.9,5.7,2.9c0.3-0.1,0.7-0.2,1.1-0.3c0.9,0.8,1.4,2,2.5,2.4c0.6-0.6,1.2-1.6,2.2-0.7
    			c0.8,0.7,1.7,0.2,2.6,0.4c0.2,0.5,0.4,1,0.6,1.4c0.7,0,0.5-1.3,1.4-0.7c0.5,0.2,0.3,0.8,0.6,1.3c0.9,0.3,1.5,0,2-0.9
    			c0.5,0.8,1.5,1.2,1.6,2.4c1,0.8,2.3,1,2.8,2.2c0.8-0.1,0.9-0.5,1.1-0.9c1,0.4,0.4,1.5,0.7,1.7c0.6,0.6,0.9,0.4,1.2,0.3
    			c0.2-1.1-0.2-2-1-2.8c0.7-0.9,1.5,0.3,2.3-0.1c0.6-0.3,0.8-1.3,1.7-1.2c1.3,0.1,2,1.1,2.9,1.8c0.6,0.5,0,1.8,1.4,1.6
    			c0.8-0.1,1,1,1.8,1.4s1.7-0.1,2.2,0.7c0.6-0.5-0.1-1.3,0.5-1.7c-0.7-0.5-1.2-1-0.9-1.9c0.2-0.1,0.4-0.3,0.5-0.2c1,0.4,2,0.8,3.4,1
    			c0.5-0.1,1.3-0.4,2-0.5c1.4,0.3,1.6,1.5,1.8,2.5c0.9,0.1,1.6,0,2-0.8c0.3-0.7,0.7-1.3,1.6-1.2c0.7,0.1,0.7,1,1.5,1.2
    			c0.7,0.2,1.4-0.6,2,0.1c2.1-2,5.1-0.1,7.2-2.1c1.1,0.9,2.6,1.1,3.3,2.6c0.2-0.6,0.3-1.2,0.4-1.4c1.3-0.4,2.1-0.6,3.1-0.9
    			c1.8,1.6,4.7,1,6.6,2.7c0.9-0.9,1.8-1.6,2.9-1.4c1.6,1.3-1.3,2.6,0.5,4.2c0.8,0.5,2.1,1.4,3.5,2.2
    			C1251.7,183.6,1251.8,183.8,1251.8,184z M1065.6,142.8c1,1.2,1.6,1.8,2.1,2.4c0.7-0.4,1.6-0.1,2.1-1.2
    			C1068.3,144.6,1067.5,143.3,1065.6,142.8z M966.3,117.3c0.7-0.1,1.5-0.1,2.1-0.8c-0.1-0.9-0.9-0.9-1-1.1
    			C967,116.1,966.6,116.7,966.3,117.3z M960.8,114.5c1.1,1.4,1.1,1.4,3,0.5C962.5,115.4,961.7,114.7,960.8,114.5z"/>
    	</clipPath>
    </defs>
	<line class="st st4" x1="870.7" y1="107.6" x2="1267.4" y2="187.3"/>
</g>
<g>
	<g>
		<defs>
    		<clipPath id='SVGID_9_'>
    			<path d="M309.1,390.8c0.1,1.5-1.5,1.4-2.1,2.3c-0.7,0.9-1.1,1.8-3.1,1.3c0.1,0.7,0.2,1.3,0.3,1.9
    				c-1.6-0.1-2.7,0.7-3.9,0.5c-0.5,0.9,0.8,1.3,0.2,2.1c-1.1-0.7-1.2-2.1-2.2-3c-1,0.6-1.9,1.1-2.5,1.5c-0.8,0.8-0.4,1.7-1.2,2.1
    				c-0.7,0.2-0.7-0.8-1.3-0.7c-0.4,0.2-0.9,0.4-1.3,0.8s-1-0.4-1.2,0.2c0,0.7,0.9,1,0.4,1.7c-0.7,0.7-1-0.2-1.5-0.4
    				c-3,1.2-5.4,3.4-8.1,5.6c0.9,0.6,0.1,1.2,0.1,2c-0.4-0.3-0.8-0.5-1-0.7c-3,1-4.8,3.6-7.9,5.3c0,0.5,0,1.4-0.1,2.1
    				c-1.3,0.9-2.7,1.2-3.3,2.9c-1.1-0.8-1.8,0.2-2.7,0.7c-0.1,1.7-1.3,3.1-1.7,4.5c-0.6,0.8-1.4,0.4-1.9,0.7c0,0.7,0.9,1,0.4,1.7
    				c-0.5-0.2-1-0.3-1.3,0.3c0,0.9,0.6,1.4,1.7,1.7c-0.9,0.4-1.3,1-1.1,1.9c0.6,0.2,1.2,0.1,1.7,0.6c0.3,0.4-0.1,0.8,0,1.2
    				c0.9,0.3,1.8,0.3,2.3,1.3c0.2,0.4,1,0.6,1.7,0.3c0.1-0.3,0.3-0.6,0.5-0.9c0.3,0,0.5,0.1,0.8,0.1c0-0.7,0.6-1.3-0.1-1.8
    				c-0.4-0.4-0.9,0.7-1.4-0.3c4.1-1.7,5.9-5.8,9.1-8.5c0.4-0.5,0.1-1.3,0.8-1.7c0.3,0,0.6,0,0.9,0.1c0.5-1.4,2.2-2,2.3-3.5
    				c0.9-0.1,1.8,0.1,2.6-0.9c0-0.3,0.1-0.9,0.1-1.4c1.8-0.8,3.1-2.3,5-2.1c0.5-0.8,0.9-1.6,1.4-2.3c2.1-0.2,3.8-1.1,4.9-2.9
    				c2,0.2,3.2-1.5,4.9-2.1c0.5,0.1,1,0.3,1.5,0.4c0.9-0.6,1.9-1.1,2.9-1.7c0.9-0.7-0.3-1.4,0-2.1c0.8-0.4,1.4-1.2,2.5-0.8
    				c0.1-0.8,0.6-1.5,0.3-2.6c-0.4-0.1-1.2-0.1-1.3-0.9c0.7-1,1.4-2.1,1.8-2.7c1-0.9,2.1,0,2.4-0.6c0.5-0.8,0.8-1.4,0.5-2
    				C310.6,391.6,310.2,390.8,309.1,390.8z"/>
    			<path  d="M241.7,428.2c-0.3,0.4-0.7,1-1,1.5c-1.2-0.2-0.2-1-0.7-1.6c-1.9,1.2-4.1,2-5.5,4.1
    				c-0.8-0.2-1.5-0.3-2-0.4c-1.5,0.9-2.7,1.9-4.2,2.4c-1.4,0.5-2.9,0.9-4.4,2c-0.1,0.5-0.1,1-0.2,1.5c-0.7-0.4-1.2,0.1-1.8,0.2
    				c-1.2,0.4-1.3,1.8-2.4,2.2c-1.2,0.4-2,1.4-2.5,2.4c-0.6,1.2-1.4,1.6-2.6,1.4c-0.2,0.3,0,0.8-0.5,1c-0.5,0.3-1.3-0.4-1.8,0.6
    				c0.5,0.5,0.4,1.3-0.1,1.9c-0.5-0.1-0.5-1-1.5-0.4c-0.1,0.9-0.7,1.8-1.2,2.7c-0.5,0.9-1.7,1-2.3,1.9c-0.6,0.8-2,0.4-2.6,1.5
    				c0,1.1-1.1,1.8-1.2,2.9c0.6,1,1.2,2,1.8,3c1.7-0.4,1.9,1.8,3.4,1.7c3.4-1.6,5.8-4.4,8.6-6.7c-0.1-0.4-0.2-0.7-0.3-0.9
    				c0.8-1,2.2-1.1,2.9-2.1c-0.1-0.4-0.2-0.6-0.3-0.9c2.1-0.1,3.5-1.7,5.2-2.4c0.4-1.5,1.9-1.8,3-2.4c1.2-0.7,1.5-2.1,2.9-2.5
    				c0.8-0.2,1.4-0.8,2.2-1.2c0.7-0.4,1.5-0.8,2.1-1.3s1.4-0.6,1.9-1.5c0.2-0.4,1.4-0.3,2-0.8c0.7-0.5,1.4-0.9,2.1-1.3
    				c0.7-0.3,1.3-0.8,2.2-0.8c1.1-0.1,2.3-0.8,2.9-1.9c0.1-0.2,0.1-0.4,0.3-0.3c0.5,0.1,1,0.3,1.6,0.4c0.4-0.5,1.3-0.5,1.7-1.4
    				c0-1.1,0.1-2.4,0.1-3.5C247,426.8,244.4,426.8,241.7,428.2z"/>
    			<path  d="M369.6,358.4c-1-0.3-0.8,0.7-1.1,1.1c-0.8-0.5-1.3,0.2-2.1,0.8c-0.9-0.2-1.8-0.5-2.9-0.8
    				c-0.3,0.1-0.7,0.7-1.3,0.6c-0.6-0.6-1.2-1.1-2.2-0.7c-0.2,0.5-0.4,1.2-0.6,1.8c-0.8-0.5-1.5,0.4-2.2-0.1
    				c-0.2,0.6-0.3,1.1-0.5,1.7c-1-0.3-2.1-0.4-2.8-1.2c-0.6,0.3-1.3,0.5-1.7,1.2c-0.1,0.6,0.8,1,0.5,1.7c-1.1,0.6-2.1-0.5-2.8-0.4
    				c-3.3,1.5-6.5,2.5-8.4,4c-1.7,2.8-3.3,4.5-5,5.7c-2,1.5-3.6,3.6-6,4.4c0.1,0.5,0.2,0.9,0.3,1.7c-1.7-0.6-2.7,0.4-3.9,1.2
    				c-0.1,0.5-0.1,1-0.2,1.7c-0.8-0.8-1.6-0.3-1.7,0.1c-0.4,1.7-2.5,2.7-2.2,4.8c0.5,0.5,1.4,0.7,1.7,1.6c0.7,1.8,2.2,2.5,3.9,2.9
    				c0.4,0.1,0.6-0.1,1.1-0.4c0.1-0.7,0.2-1.6,0.3-2.5c1.6-0.9,3-1.8,4.7-2.8c0-0.4,0-1,0-1.5c0.5-0.1,0.7-0.2,0.9-0.2
    				c0.3,0,0.6,0.3,1.1-0.2c0.8-2,2.8-3.1,4.7-4.2c0.4-1.4,1.3-2.3,2.5-3c1.3-0.7,2.7-1.4,3.2-3c0.3-1.1,1.4-0.8,2.3-0.9
    				c0.8-1.4,2-2.2,3.5-2.5c1.9-0.4,3.4-1.4,4.6-2.9c0.4,0.2,0.8,0.2,1.2-0.1c0.1-0.3,0.2-0.5,0.2-0.6c2.4-0.2,3.8-2.6,5.8-2.3
    				c1.1-0.8-0.4-2,0.9-2.6c0.8,0.5,1.6,1,2.4,1.5c-0.1-1.4,1.6-1.2,2-2.3c-0.8-0.1-1.5-0.2-2.7-0.3c1.2-0.7,2-1.2,2.7-1.6
    				C369.8,359.5,370.4,358.9,369.6,358.4z"/>
    			<path  d="M409.2,336.3c-1.1,0.6-2.2,1.3-3.4,2c-0.6-0.8-1.8,0.8-2.1-0.6c0.3-1.1,1.3-0.8,2.1-1
    				c-0.1-0.6-0.1-1.1-0.2-1.7c-2.1,0.4-2.7,2.5-4.1,3.1c-0.7,0.9-0.1,1.6-0.3,2.1c-1.3,0.3-1.4-1.1-2.3-1.5c-0.8,0.7-1.5-0.1-2.2,0
    				c-0.1,0.4-0.2,0.8-0.3,1.2c0.3,0.1,0.6,0.2,0.9,0.3c-0.1,0.5-0.5,0.9-0.9,0.6c-1.2-0.8-2.3-0.6-3.5,0.1c-0.5,0.3-1.1,0.6-1.6,0.9
    				c-0.1,0.9,0.6,2.1-0.7,2.5c-1.2-0.2-0.4-1-0.5-1.5c-1,0-1.5,0.4-1.6,1.3c-1.8-0.2-3.4,0.9-4.3,2c-1.1,1.3-2.6,1.8-3.7,2.8
    				c-0.4,0.8-0.8,1.5-1.2,2.2c0.5,0.9,1,1.8,1.5,2.5c0.6-0.1,0.9-0.7,1.7-0.6c0.3,0.5,0.7,1.1,1.2,2.1c0.7-0.9,1.4-1,2.1-0.8
    				c0.8-2.4,3.1-1.4,4.6-2.2c-0.1-0.3-0.1-0.7-0.2-1.1c0.8-0.1,1.4,0.6,2.1,0.2c0.3-0.7,0.7-1.7,1.6-1.5c1.1,0.2,1.7-0.6,2.5-0.9
    				c0.7-0.3,1.4-0.9,2.2-1.1c3.1-0.9,3.1-0.9,5.1-3c1.1-1.1,2.3-1.8,3.9-1.8c0.9-1.8,3.1-2.5,3.6-4.6
    				C410.1,338.2,410.1,336.9,409.2,336.3z"/>
    		</clipPath>
		</defs>
		<line class="st st8" x1="183.1" y1="471.6" x2="430.3" y2="322.7"/>
	</g>
</g>
<g>
    
    <defs>
	<clipPath id="SVGID_18_">
		<path d="M392.2,173.6c0.5-0.5,0.6-1.3,0.2-1.7c-0.9-1-0.4-2-0.3-3.1c1.3-0.7,2.1-2.2,4-2.3
			c0.3-0.9-1.5-1.4-0.7-2.2c0.2-0.8,0.6-0.4,0.9-0.5c0.3-0.5,0.5-1.2,1.2-1.5c1.7-0.3,3.1,0.8,4.5,1.3c1.3-0.5-0.2-1.3,0.5-2
			c1.1-0.3,2.3,0,3.3,0.7c0.2-0.5,0-1.1,0.7-1.3c1,0.3,1.2,1.6,2.2,2.1c0.3,0,0.6,0.1,1,0.1c0.1-0.1,0.2-0.3,0.2-0.4
			c0.3-1-1-2.2,0.4-3.1c0.8-0.1,0.8,0.9,1.5,1.1c0.4-0.7,0.6-1.7,1.8-1.6c0.7,0.9,0.3,2.1,0.8,3.1c1.3,1.2,2.3-0.8,3.4-0.3
			c0.3-0.7-0.3-1.8,0.9-2.2c0.2,1.4,1.1,2.2,2,3.2c0.7-1.2-0.3-2.1,0.1-3.2c0.8-0.1,1.6-0.7,2.3-0.3c0.9-0.7,0.4-1.6,1.1-2.4
			c0.6-0.1,1.6-0.3,2-0.4c1.3,0,1.3,1,2.1,1.2c0.9-0.7,1.8-1.4,2.8-2.1c0.3,0.3,0.5,0.4,0.8,0.7c0.8,0.1,1.2-0.8,1.8-1.1
			c1.1-0.1,2.2,0.2,3.2,0.7c-0.2-1.2,1.5-1.4,1.4-2.5c1.3,0.8,2.7,1.5,4.3,1.4c0.7-0.4,0.8-1.2,1.3-1.7c0.6-0.6,0-1.7,1.1-1.9
			c1.4-0.1,2.8-0.2,4.6-0.3c0.6-0.5,1.6-1.2,2.3-1.8c0.9-0.1,1,1.2,1.8,0.5c0.6,0.8,1.2,1.5,1.7,2.1c0.7,0.2,0.9-0.4,1.6-0.8
			c0.7,0.2,1.6,0.4,2,0.5c1.7-0.7,2.2-1.7,2.6-2.6c1,0,0.9,1,1.8,1.1c1.3-1,2.8-2.1,4-3.1c0.7-0.1,0.7,0.3,0.9,0.5
			c0.5,0.2,0.8-0.3,1.3-0.3c0.4,0.5,0.8,1.1,1.2,1.5c0.6,0.1,1,0.1,1.4,0.2c0.1-2.4,3-1.1,3.5-2.8c0.9,0,0.9,0.7,1.4,1.1
			c0.6,0,1.4,0.1,2.3,0.2c0.4-0.3,0.9-0.7,1.4-1.1c1.2,0,2.3,0.1,3.2,0.8c0.7-0.3,0.5-0.9,0.8-1.3c2-1.1,4.1-1.2,6.1,0.1
			c0.6-0.6,0.3-1.2,0.5-1.9c0.5-0.3,1-0.7,1.6-1.3c0.4,0.1,1.1,0.3,1.5,0.4c0.5-0.4,0.9-0.7,1.2-0.9c0.5-0.1,0.7,0.4,1.1,0.6
			c0.8,0.1,0.8-0.5,0.9-1.3c1.5,1.2,3.5,0.5,5,1.8c1-0.8,1.9-1.5,2.8-2.2c0.8,0.3,1.3,0.8,2.3,0.7c0.4-0.3,1-0.8,1.4-1.1
			c1.4-0.1,2.3,1,3.5,0.8c0.5,0.6,1,1.1,1.5,1.8c0.5-2.6,3.3-1.8,4.2-3.3c1-0.1,1.6,0.5,2.2,0.7c0.3-0.3,0.7-0.5,0.9-0.7
			c0.7-0.3,0.9,1.1,1.7,0.4c0.6-0.5,1.2,0.1,2.3-0.2c0.4-0.5,1.7-0.7,1.9-2.1c0.6-0.1,1.2-0.2,1.6,0.4c0.5,0.7,0.9-0.3,1.5-0.1
			c0.3,0.3,0.7,0.7,1.1,1.1c0.7-0.6,1.5-1.1,2.3-1.8c0.7,0.7,0.3,1.9,1.5,2.1c0.2-0.1,0.4-0.3,0.7-0.5c-0.1-0.4-0.2-0.8-0.3-1.2
			c1.4-0.2,2.9-0.3,3.8-1.4c0.6-0.1,0.8,0.4,1.1,0.5c0.6,0.1,0.9-0.6,1.4-0.8c1,0.1,1,1.3,1.8,1.6c0.5-1.3,1.8-1.9,2.8-2.8
			c1.1,0.1,2.4-1,3.4,0.3c2-0.4,4.1-0.6,5.5-2.4c1.7,0.2,3.5-1.4,5.2,0.1c0.5-0.4,1-0.8,1.5-1.2c0.4,0,0.6,0.1,0.8,0.4
			c0.8,1.1,1.7,2,3.1,2.2c1.1-0.7,0.4-1.7,0.3-2.5c0.3-0.4,0.7-0.8,1.3-0.9c-0.1,1.2,0.7,1.7,1.3,2.6c0.8-0.6,1.6-1.2,2.2-1.7
			c1.8,0.3,3.1,0,4.4-1.3c0.3,0.3,0.6,0.7,1.1,1.2c1.1-1.1,2.3-1.1,3.4-0.2c1.1-0.2,0.1-1.7,1.4-1.8c1.5-0.2,3.1-0.5,4.8-0.2
			c1.5,0.2,2.9,0.2,4.5,0.4c0.4-0.2,0.3-0.7,0.4-1.1c1,0.2,2.1,0.4,3.3,0.6c0.3,0.3,0.6,1.1,1.3,1.4c0.5-0.8-0.5-1-0.6-1.6
			c0.5-0.7,1.1-1.4,2.2-1.4c1.6,0,2.7-0.9,3.8-1.8c0.7,0,0.8,0.6,1.4,1.1c0.8-0.6,1.8-0.3,2.6-0.2c0.7-0.3,0.6-0.8,0.7-1.3
			c2.3-0.3,3.7-2.2,5.6-3.4c0.8,1,2.4,0.2,3.2,1.6c0.9-0.9,1-2.3,2.3-2.5c1.9-0.1,3.6,0.4,5.2,1.4c1.9-0.5,1.4-2.9,3-3.7
			c0.8,0.9,2.4-0.2,3,1.1c2.1,0.6,4.4,0.2,6.4,1.3c1.2-0.6,1.1-2.8,3.1-2.5c0.3-1.6,1.9-1.8,2.5-2.5c1.6-0.6,1.8,0.9,2.8,1.1
			c-0.1-0.9,0.5-1.3,1.2-1.7c1.1-0.2,1.8,0.9,2.9,0.8c0.7-0.3,1.3-0.7,1.2-1.8c2.4,1.5,5.3-0.4,7.6,1.8c0.5,0.5,1.6,0.3,2.2,0.5
			c1-0.3,0.4-1.3,1.4-1.7c1.9,0.2,3.8,0.6,5.5,2.2c0.3-0.9-0.4-1.2-0.6-1.6c0.5-1.5,1.4-2.7,3-3.4c0.4,0.4,0.7,0.7,1.2,1.2
			c1.2-0.9,2.5-1.9,3.7-2.8c1.2,0.2,2.3,0.3,3.6,0.5c0.4,0.6,1,1.3,1.7,2.2c0.8-1.5,1.7-2.4,3.3-2.9c1.7-0.5,3-2.1,3.2-4.4
			c1,0.3,1.9,0.5,2.8,0.7c0.5,1.1,1.8,0.8,2.9,1c0.6-0.4,1.2-0.8,1.2-1.6c0.4,0,0.9,0.1,1.3,0.1c0.5,0.6,1,1.1,0.7,1.9
			c1,0.1,1.3-1.1,2.2-1.1c0.3,0.3,0.7,0.7,1.1,1.1c2.7-1,5,1.4,7.6,0.8c0-0.1,0-0.3,0.1-0.6c0.9-0.2,1.9-0.4,2.8-0.5
			c0.9-1.3,1.7-2.6,2.4-3.7c1.9-0.9,2.3,0.8,3.1,1.4c2.1-0.5-0.6-2,1.4-2.6c0.2,0.1,1.1,0.3,1.8,0.5c1.1-0.9,2-1.5,2.8-2.2
			c1.2,0.3,1.1,1.4,1.3,2.3c1.3,0.6,2.6,0.4,4.2-0.1c0.5-0.4,1.4-1.1,2.2-1.7c1.2,0,2.1,0.7,3.6,1.3c0.6-0.1,1.7-1.6,2.9,0.1
			c1.4-0.9,2.8-1.3,4.7-0.9c-0.1-0.6-0.2-1.2-0.2-1.5c1.7-1.6,3.2-2.6,5.4-3c1,0.2,2.2,1.5,3.7,0.1c0.4-0.4,1.3,0.4,2,0.7
			c0.3-0.3,0.7-0.5,1.1-0.8c1,1,2.6,0.4,3.4,1.4c1-0.6,0.8-1.1,0.1-1.8c2.5,0.5,4.5-0.1,6.3-1.4c0.8,0.1,1.7,0.2,2.7,0.3
			c0,0.5,0,0.8,0,1.2c0.4,0.1,0.6-0.1,0.9-0.3c-0.3-1-0.7-2-1-3c0.8-1.4,2.9-1.5,2.8-3.8c0.8,0.4,1.3,0.6,1.9,1
			c0.1,1.7,1.9,2.8,2.8,4.2c1.4,0.6,2.7,0.7,3.1,2.1c-0.1,1-1,0.5-1.5,0.7c0,0.8,0.8,1.2,1.1,1.8c0.1,0.5-0.4,0.7-0.6,1.2
			c0.3,0.3,0.6,0.7,1,1.3c-0.9,0.7-1.3,1.6-1.7,2.4c-0.8,0-1.1-0.4-1-1c0.1-0.5-0.1-0.8-0.5-1c-1.3-0.1-0.5,1.4-1.5,1.8
			c-0.7,0.2-1.2,0.9-1.9,1.4c-1.3-0.4-2.7,0.4-4.2,0c0,1.5-1.5,1.7-2.2,2.5c-1.1-0.5-2,0.3-3,0.4c-1.1,0.1-1.6,1.3-2.5,1.1
			c-1.1-0.1-2,0-2.8,0.7c-0.6-0.3-0.8-0.7-0.6-1.1c0.1-0.4-0.1-0.6-0.3-0.8c-1.7,0.8-1.7,0.8-1.3,2.9c-0.7,0-1.5,0.3-1.8-0.6
			c-2.1,0.5-3.7,2.2-5.8,1.7c-0.8,0.3-0.3,1-0.9,1.5c-1.3-0.5-2.7-0.5-3.9,0.6c-0.7-0.2-1.2-0.8-2.2-0.7c-0.4,0.3-1,0.8-1.4,1.1
			c-1.3,0.1-2-1-3.2-0.8c-0.5,0.5-1.4,0.7-1.1,1.7c-1.1-0.2-2,0.3-2.9-0.3c-0.6,0.9-1.8,0.4-2.5,1c-1-0.5-1.9-1.2-3.2-1.3
			c-0.6,0.5-1.4,1.1-1.8,1.4c-1.8,0.3-3.1,0.6-4.5,0c-0.1,1.6-1.5,1.8-2.2,2.6c-2.2-0.6-3.9,1-5.4,1.1c-0.9,0-0.9-0.7-1.7-0.4
			c-0.5,0.4-1.2,0.9-2,1.5c-0.8-0.4-1.6-0.8-2.4-1.2c-2.7,1.5-5.5,1.3-8.5,0.7c-1.3,1-2.7,2.1-3.8,2.9c-1.3,0.3-2.3,0.7-3.2,0.7
			c-0.8,0-1.5,0.5-2.4,0.3c-3.7-0.9-7.3-0.2-10.9,0.9c-0.2,0.1-0.4,0-0.7-0.1c-0.8,0.6-1.7,1.3-2.4,1.9c-0.6,0.2-0.8-0.3-1.1-0.5
			c-2,0.6-3.9,1.3-5.9,1.1c-1.6-0.1-3-0.2-4.4,0.8c-0.9,0.7-2.1,0.7-3.2,0.6c-0.7-0.4-0.3-1-0.4-1.4c-0.9-0.3-2.1-0.2-2.2,0.6
			c-0.3,1.4-1.5,1.6-2.2,2.5c-2.4-1.7-4,1.4-6.2,1c-0.6-0.3-0.1-0.9-0.4-1.4c-1.2,0-1.3,1.1-1.8,1.9c-1.1,0.1-2.2,0-3.2-0.7
			c-0.1,0.4-0.3,0.7-0.4,1.2c-0.9-0.3-1.8-0.5-2.6-0.7c-2,2.1-4.6,1.7-6.5,3.5c-0.7-0.2-1.7-0.4-2.5-0.6c-0.1,0.5-0.2,0.8-0.3,1.2
			c-0.8,0.2-1.5,0.3-2.3,0.5c0-0.3,0.1-0.5,0.1-0.9c-1.8,0.2-3.7,1.2-5.3-0.3c-0.5,0.3-0.9,0.6-1.3,0.8c-0.6,0.1-0.6-0.7-1.2-0.5
			c-0.1,0.3-0.2,0.7-0.4,1.3c-1.1-0.1-2.1-0.2-2.9-0.3c-0.8,0.3-0.5,1-1,1.5c-1.4,0.1-2.9,0.1-4.2,0.2c-1,1.3-2.3,1-3.5,0.9
			c-0.7,0.5-1.4,1-2,1.6c-2.7-0.2-4.1,0.4-5.2,2.2c-0.4-0.4-0.7-0.8-1.2-1.3c-1.5,1.3-3.4,1.2-5.4,0.8c-0.9,0.7-1.8,1.4-2.6,2
			c-0.8-0.1-0.3-0.5-0.4-0.8c-0.6-0.4-1.3-0.9-2.5-0.9c-0.5,0.3-1,0.8-1.5,1.2c-1.3-0.2-2.5-0.3-3.7-0.4c-0.2,0.3,0,0.9-0.4,1.1
			c-0.6,0.4-1.2,0-2,0c-0.4,0.3-0.9,0.7-1.6,1.3c-0.5-0.2-1.1-0.4-1.7-0.6c-0.1,0.6-0.2,0.9-0.3,1.3c-2.3-0.9-4.7,0.2-7,0
			c-0.5,0-0.7,0.4-1.1,0.6c-1,0.5-1.8,0.9-3,0.4c-0.6-0.2-1.8-0.1-2.5,0.6c-0.5,0.4-1,0.8-1.4,1.1c-0.9-0.2-0.9-1.3-1.9-1.2
			c-0.7,0.1-1.4-0.1-2-0.6c0.1,0.4,0.3,0.7,0.4,1.1c-0.2,0.5-0.7,0.7-1.1,1c-1.2-0.9-2.6-0.6-3.9-0.9c-0.6,0.4-1.3,0.8-1.2,1.7
			c-0.8-0.1-1.5-0.2-2.2-0.3c-0.4-0.3-0.5-1-1.1-1.1c-0.9,0.1-0.7,0.9-0.8,1.4c-3.2,0.4-6.2,1.4-9.3,0.5c0,0.3-0.1,0.5-0.1,0.5
			c-0.9-0.1-1.8-0.2-2.3-0.3c-1,0.8-1.5,1.1-2,1.5c-0.7-0.3-1.4-0.8-2.3-0.7c-0.1,0.3-0.1,0.6-0.2,0.9c-1,0.6-1.9-0.1-2.5,0
			c-1.5-0.5-0.4-2-1.7-2.6c-1.2,1.2-3,1.9-4,3.7c-0.4-0.1-1.2,0.3-1.5-0.9c-1,0.9-2.1,1.3-3.2,0.7c-1.1,0.8-2.1,1.6-3.1,2.4
			c-1.6,0-3-0.5-4.3-1.5c-0.2,0.4-0.3,0.8-0.5,1.1c-0.9,0.7-1.4-0.8-2.2-0.5c-0.8,0.3-1.6,0.3-2.4,0.1c-0.4,0.6-0.6,1.5-1.5,1.6
			c-0.9-0.2-0.6-0.9-0.6-1.5c-0.3,0.1-0.5,0.1-0.7,0.2c-1.1,0.8-2.1,2.1-3.5,1.8c-2-0.4-3.8,0.4-5.8,0.6c-0.2,0.2,0.1,0.8-0.4,1
			c-0.1,0-0.4,0.2-0.5,0.1c-1.9-1.6-4.2-0.7-5.8,0.1c-2.6,1.2-5.3,1.2-7.9,1.8c-1,0.3-2.3,0.2-3.1-1c-0.2-0.2-0.8-0.2-1.3-0.3
			c-0.5,2.5-3.3,1.7-4.2,3.1c-1.1,0.2-1.6-0.5-2.3-0.7c-0.8,0.2-0.4,1.1-0.8,1.6c-1.7,0.3-2.8-1.3-4.7-0.6c-0.4,0.3-1,0.8-1.8,1.3
			c-1-0.2-2.1-0.3-3.3-0.5c-0.2-0.2-0.3-0.8-0.9-0.9c-1,0.1-0.6,1-1,1.4c-3.1,0.8-5.9,2.7-9,1.4c-1,0.3-0.7,1.1-0.9,1.5
			c-1.1,0.4-1.6-0.8-2.8-0.3c-0.7,0.7-2.2,1.2-2.7,2.7c-1,0.2-1.5-0.6-2.1-1.2c-1.4,1.2-2.4-0.5-3.7-0.4c-2.5,1.5-5.2,2.7-8.4,3.4
			c-0.1,0-0.5-0.3-0.9-0.4c-0.5,0.2-0.7,0.6-0.6,1.1c-0.7,0.1-1.7,0-1.5,1.3c-1-0.2-2.1,0.1-2.8-0.8c-0.8,0.1-1.2,0.7-1.8,1
			c-0.6,0.3-1.2-0.2-1.8,0c-0.7,0.1-1-1.1-1.6-0.5c-0.8,0.7-1-0.5-1.6-0.4c-0.9,0.3-0.5,1.6-1.9,2c-0.7,0.1-1.8,0-2.9-0.8
			c-0.3,0.2-0.7,0.4-0.9,0.8c-0.2,0.2-0.2,0.6-0.3,1c-0.8-0.2-1.6-0.3-2.4-0.5c-0.7,0.1-0.9,1.2-1.7,0.9c-0.4-0.4-0.7-0.7-1-1.1
			c-0.6,0.1-0.2,0.5-0.6,0.8c0,0-0.3,0-0.6,0c-0.8,0-1-0.7-1.4-1.2c-0.7-0.9-1.4-1.8-2.2-2.7c-0.4,0.6-0.1,1.1-0.6,1.3
			C393,174.6,392.6,174.1,392.2,173.6z"/>
	</clipPath>
    </defs>
	<line class="st st9" x1="382.7" y1="172.3" x2="788" y2="98"/>
</g>
<g>
	<defs>
    	<clipPath id='SVGID_19_'>
		<path d="M510.4,83.9c0-0.5,0.7-1.2-0.2-1.5c-0.8-0.1-0.8,0.8-1.4,1.1c-0.7,0-0.1-0.9-0.7-1.1
			c-0.5-0.2-0.9-0.6-1.2-0.8c-0.3-0.5,0.6-0.9,0.1-1.5c-0.7-0.6-1.3,0.1-2.4-0.2c-0.6-0.4-1.5-1-2.4-1.7c0.3-1.2,1.6-2,1.8-3.2
			c-0.9-0.2-0.8,1.2-1.8,1.1c-0.3-1.1-1.5-1.8-2.1-3.3c-0.5,0.3-1,0.7-1.6,1c-0.4-2-1.4-2-2.5-2.2c-1-0.2-1.6-1.7-2.9-1
			c-0.5-1,0.1-1.7,0-2.4c0.5-0.5,1.1-0.5,2.1-0.4c0.7,0.1,0.3,1.4,1.6,1.9c0.7,0.1,2,0.3,3.2,0.5c0.7-0.4,0.3-1.1,0.3-1.5
			c0.9-0.7,1.8-0.5,2.5-0.8c0,1.2,1.1,1.4,1.7,1.9c0.8,0,0.9-1.3,1.9-0.9c0.9,0.6,1.8,1.3,2.7,1.9c0.1,0.5,0.2,1,0.3,1.5
			c1.2,1.3,3.3,1.7,4,3.6c2.1,0.3,3.7,1.4,4.7,3.2c0.9,0.1,1.7,0.2,2.7,0.3c0.7,1.9,2.6,2.4,4.1,3.7c0.5-0.2,1.1-0.4,1.4-0.5
			c1.3,0.3,1.4,1.2,1.9,2c1.5-0.6,2.7,0.7,4.2,0.6c0.1,0.3,0.2,0.6,0.3,0.9c0.7,0.5,1.3-0.1,1.9,0c3.8,1.8,8.3,1.7,11.5,4.7
			c0.6-0.9-0.6-0.8-0.4-1.4c0.2-0.9,0.9-0.6,1.5-0.9c0.1,0.3,0.2,0.5,0.2,0.8c0.3,0,0.7,0,1,0c0.6,0.5,0.8,1.3,0.4,1.7
			c-0.7,0.9-0.4,1.7-0.3,2.6c-0.3,0.2-0.8,0-1.1,0.5c-0.3,0.6,0.1,1.2,0.1,1.8c-0.7,0.6-1.4,0.5-2.2-0.2c0.2,1.2,0,1.9-0.9,2.3
			c-0.7-0.1-0.7-0.6-0.8-1.1c-0.9-0.2-0.7,0.8-1.3,1.1c-0.5-0.3-0.5-1.2-1.5-1.4c-1.4,0.2-3.1-0.3-4.8,0.4c-0.8-0.6-2-0.8-1.8-2.2
			c-1.7,0.2-2.6-1-4-1.7c-0.6,0.3-1.5,0.6-1.9,0.8c-2.9-2.1-6-2.6-8.1-5c0-0.3,0.1-0.7,0.2-1.2c-0.7,0.3-1.6-0.1-1.7,0.9
			C515.8,87.4,512.8,86.2,510.4,83.9z"/>
		<path d="M570,128.8c-1.7-0.9-2.6-2-3.7-3.1c-1.1-1.1-2.5-1.8-3.9-2.8c-0.1-0.6-0.3-1.2-0.5-2c-2.4-0.3-4.1-2-6-3.2
			c0.3-0.7,1.4-0.2,1.1-1.3c-0.6-0.1-1.3-0.2-1.8-0.2c-2.4-1.8-3.5-4.2-2.5-7.3c1-0.4,2.2-0.9,3.2-1.3c1,0,1.3,0.8,2,0.9
			c0.1,0.6,0.2,1.1,0.3,1.6c0,0.2,0.2,0.1,0.4,0.1c1.3,0.1,2.4,0.9,3,1.9c0.5,0.8,1.1,1.2,1.7,1.7c0.6,0.5,1.3,1,2.1,1.4
			c0.7,0.4,1.1,1.5,1.5,1.5c1,0,1.5,0.7,2.1,1.1c0.7,0.4,1.4,0.9,2.1,1.4c0.7,0.5,1.5,0.8,2,1.4c1,1.1,2.4,0.8,3.5,1.6
			c1,0.7,1.9,2,3.4,1.7c1.4,1.2,3.4,1.8,4.4,3.7c0.2-0.2,0.4-0.4,0.7-0.7c1.2,0.1,1.9,1.4,3.1,1.7c0.2-0.2,0.4-0.4,0.7-0.7
			c3.2,1.6,6.8,2.6,9.7,5c0.8,1.3-1.2,2.5-0.1,3.8c-0.7,1-1.3,1.9-2,2.9c-1,0.4-2.1-0.4-3.2,0.1c-1.2-0.1-1.5-1.6-2.4-1.8
			c-1.1-0.2-1.6-1.2-2.7-1.3c-1.1-0.1-2.1-0.3-3,0c-1-0.6-0.1-1-0.3-1.5c-0.8-0.3-1.5,0-1.8,0.7c-1.1,0-0.7-1-1.2-1.4
			c-0.4-0.4-0.8,0-1.1-0.1c-0.3-1.2-1.1-1.8-2.4-1.8c-1.2,0-2.4-0.4-3.2-1.3c-0.8-0.8-2.2-0.3-3-1.3c-0.4-0.4-1-0.7-1-1.5
			C571,128.5,570.5,128.6,570,128.8z"/>
		<path d="M458.9,50.9c-2.2-1.1-4.5-3.5-7.2-6c-0.4-0.6,0.2-1.9-0.8-2.7c-0.8,0-0.8,1-1.4,1.2
			c-0.7-0.1-1.2-0.7-1.8-1.1c0.5-1,0.1-2-0.1-3c-0.6,0.1-1.2,0.2-1.7,0.3c0.2-0.8-0.9-1.1-0.8-2c-0.7,0.1-1.3,0.2-1.9,0.2
			c-0.8-0.8-0.7-1.5-0.3-2.3c-0.2-0.6-0.9-0.8-1.1-1c-0.2-1.1-0.4-2-0.5-2.9c-0.8-0.5-1.7-0.6-1.6-1.5c-0.5-0.2-1.3,0.5-1.5-0.6
			c0.1-0.9,0.9-0.7,1.5-0.9c0.7,0.5,1.5,1,2.6,1.8c-0.4-1.1-0.6-1.8-0.8-2.5c1.2-0.1,1.7,1.5,2.9,0.8c-0.1,1-0.3,1.9-0.4,2.8
			c1.1,0.8,1.5-1,2.8-0.3c0.6,2,3.3,2.3,4.5,4.3c0,0,0.3-0.1,0.6-0.1c0.5,0.2,0.6,0.6,0.6,1c1.9,0.5,3.4,1.4,4.6,3
			c0.9,1.3,2.1,2.1,3.7,2.2c0.4,0.7,0.6,1.9,1.8,1.7c1.7-0.3,2.9,0.7,4.1,1.6c1.1,0.8,2.2,1.2,3.7,1c1.8,1.3,3.6,2.7,5.8,2.5
			c0.7,0.3,0.6,0.6,0.7,0.9c0.1,0.2,0.2,0.3,0.5,0.7c0.4-0.2,1-0.5,1.3-0.7c1.6,1.1,3,2.1,4.5,3.1c0.8-0.2,1.7-0.5,2.4-0.7
			c0.5,0.4,0.7,0.5,0.8,0.9c0.4,1.8,0.4,3.5-1,4.8c-0.7,0.7-0.5,1.5-0.7,2.2c-1.7,1.1-3.5-0.3-5.2,0c-0.4,0.1-1.2-0.5-0.8-1.5
			c-0.7,0.2-1.2,0.4-1.7,0.5c-1.2-0.7-2.6-1.2-2.7-3c-0.7,0.5-1,0.7-1.4,1c-1.7-1.9-4.3-2.4-6.5-3.6C464.3,52,462.1,51.3,458.9,50.9
			z"/>
		<path d="M429.3,18c-0.7,0.9-1,1.5-1.4,2c0.2,0.7,0.8,0.7,1.2,1.3c-0.5,0.8-1.1,1.6-1.7,2.4c-0.8,0-1.5-0.1-2.5-0.1
			c-1.3-0.6-2.4-1.7-4.1-2.2c-1.4-0.4-3-1.3-3.6-3c-0.9,0.3-1.5,0-1.9-0.9c0.4-0.3,1.4,0,1.2-1.1c-1-1-1.7,0.1-2.6,0.4
			c-0.5-0.3-1-0.7-1.5-1c-1.1-0.7-1.8-1.7-1.5-3.1c0.1-0.4-0.4-0.6-0.9-0.5c0,0.3,0.1,0.6,0.1,0.9c-0.4,0.1-0.8,0.1-1.2,0.2
			c-0.4-0.6,0-1.7-0.9-2c-0.1-0.9,1.2-1.6,0.3-2.7c-0.6,0-0.9,0.8-2.1,0.6c-1.1-1-3.3-0.7-4.5-2.4c0.5-0.3,1-0.6,1.5-0.9
			c0.5,0.6,0.6,1.6,1.8,1.4c1.1-0.9-0.8-1.3-0.3-2.2c-1.1-0.7-2.2-1.5-3.2-2.2c0.2-1.1,1.4-1.6,1-2.8c2.1-0.4,3.7,1.3,5.7,1.4
			c0.6,1.4,1.8,2.3,3.3,2.8c2.7,1,2.7,1,4.9,3.4c0.5,0.6,1.3,1,1.9,1.5c0.7,0.6,1.6,0.8,1.9,1.9c0.2,0.8,1.3,0.8,2.1,0.8
			c0.6,0.5,0.3,1.4,0.7,2c0.3-0.2,0.6-0.5,0.9-0.6c1.4,1,1.5,3.5,4,3.3C427.8,17.2,428.1,17.8,429.3,18z"/>
    	</clipPath>
	</defs>
	<line class="st st13" x1="384.7" y1="-14.1" x2="602.5" y2="139.6"/>
</g>
<g>
	<defs>
	<clipPath id="SVGID_28_">
		<path id="SVGID_27_" d="M1228.3,483.4c1.1-1.4,0.8-3.5,1.9-5c0.3-0.6,1-0.3,1.4-0.6c-0.1-0.6-1-1-0.6-1.9c0.5-0.4,1.1-0.4,1.8,0.1
			c0.7-1.6-0.9-2.5-1-3.9c0.2-0.7,1-0.3,1.4-0.8c0.5-1.2,0.8-2.7,2.2-3.3c-0.3-1.3-1.1-0.4-1.6-0.6c-0.5-0.5-0.3-1.3-0.6-1.9
			c0.6-0.2,1-0.3,1.4-0.4c0.8-0.6,0.3-1.6,1-2.1c-0.6-0.4-1,0-1.5,0c-0.9-1-0.1-2.7-1.4-3.5c0.6-2.4,0.1-5.2,2.5-6.9
			c-0.1-0.3-0.1-0.7-0.2-1c1.1-1.2,1.8-2.6,2.3-4.2c0.8,0,1.4-0.4,1.7-1.3c-0.3-1.2-0.6-2.5-0.9-3.8c0-0.1-0.3-0.2-0.4-0.3
			c0.3-0.5,1.3-0.6,1.2-1.2c-0.2-2,1.7-3.4,1.4-5.5c0.4-0.6,1-1.4,1.5-2.1c1,0.2,1.3-1,2.3-1c-0.2-1.2-1.5-1.6-1.1-2.8
			c0.3-0.4,0.5-0.7,0.9-1.3c-0.4-1-0.1-2.1,0.3-3.7c0.2-0.2,0.7-1,1.5-2c0.9-0.2,2.2-0.4,3.6-0.7c-0.5-0.8-0.9-1.5-1.7-1.9
			c-1,0-0.8,1.4-1.7,1.5c-0.4-0.1-0.4-0.1-0.8-1.8c1-0.4,0.9-1.6,1.5-2.2c0.3-0.1,0.7-0.1,1.2-0.2c-0.3-1.3,0.5-2.4,0.6-3.7
			c-0.3-0.2-0.5-0.4-0.7-0.5c0.3-0.4,0.5-0.8,0.9-1.3c-0.7-1.9,0.2-3.7,1-5.5c0.3-0.6,0.6-1.3,1.5-1.4c0.8-0.1,1.3-1.2,1.3-1.6
			c-0.3-1.6,1.2-2.8,0.5-4.2c0.4-0.2,0.7-0.3,0.9-0.4c0.1-0.4-1-0.6-0.2-1.1c-1.3-1.1-0.6-2.4,0.1-3.4c0.6-0.9,0-1.6,0.1-2.3
			c0.6-0.4,1.2-0.9,1.8-1.3c-0.5-0.4-0.6-1.2-1.3-1.5c1.3-2.9,2.7-5.8,4-8.7c0.8-1,1.6,0.3,2.4-0.1c0.3-0.6-0.7-0.5-0.5-1.1
			c0.3-0.4,0.6-0.9,0.9-1.3c-0.6-0.5-1,0-1.5-0.1c-0.6-0.2-0.4-0.7-0.6-1.3c0.8-1,1.6-2,2.3-2.9c-0.5-1.3,0.4-2.3,0-3.2
			c0.7-0.4,1,0.1,1.4,0.2c0.3-0.6-0.1-1.2-0.1-1.8c0.3-1,1.3-1.4,1.9-2.1c0.6-0.6,0.9-1.2,1-2c-1-0.6-1.4,0.9-2.6,0.8
			c0.6-2.2,1.7-4,2.9-5.8c-0.1-0.5-0.2-1.1-0.3-1.6c0.9-0.4,1.7-1.3,1.7-1.9c-0.1-2.2,2-3.7,1.2-5.9c1-0.9,2-0.3,3-0.3
			c0,0,2.1-1.1,2.2-1.2c-0.8-0.6-1-1.5-2.2-1.7s-1.6-1.9-2.4-2.7c0.6-0.9,1.1-1.7,1.8-2.7c0,0,0.4-0.1,0.7-0.1c0.3-0.5,0-0.9,0-1.3
			c1.3-1.8,2.2-4.1,4.7-4.7c-0.4-0.5-1,0.1-1.2-0.6c-0.3-1.1,0.7-1.2,1.4-1.8c-0.5-0.2-1-0.5-1.5-0.7c0.8-0.8,0.8-1.9,1.9-1.9
			c-0.2-1.9,0.4-3.6-0.4-5.3c-0.5-0.2-0.3,0.5-0.7,0.4c-0.4-0.5-0.3-1.2-0.5-1.8c0.9-0.5,1.5-1.2,1.8-2.2c-0.5-0.6-0.7-1.3-1.4-1.7
			c0.4-1,0.8-2,1.3-3.2c1.1-0.7,2.1-2,3.7-2.3c-0.4-0.1-0.8-0.2-1.1-0.3c-0.4-0.7,0.7-1.1,0.2-1.8c0.7-0.6,1.5-0.9,1.9-1.7
			c-0.5-1-1.3,0-1.8-0.6c0-0.2-0.1-0.5,0-0.7c0.4-0.6,0.9-1.2,1.4-1.9c-1.5-1.8-1.1-4.2-2.5-6c0.8-1.1,0.8-1.1,2.3-1.5
			c0.3-0.9-0.5-1.7-0.1-2.6c1,0.3,2,0.6,3,0.9c0-0.8,0.5-1.4,1-2c-0.1-0.5-0.2-1.1-0.3-1.6c-0.5-0.5-1,0.1-1.6-0.1
			c-0.3-1.4-0.5-2.9-0.8-4.5c0.6-1.1,2.3-1.6,2.2-3.3c0.8-0.2,1.5-0.4,1.8-1.3c-0.7-0.5-1.3,0.3-2.2-0.1c-0.3-2.1,0.1-4.4-1.5-6.3
			c0.6-0.6,1-0.9,1.2-1.1c-0.1-0.7-0.2-1.1-0.3-1.4c0.1-0.5,0.9-0.2,0.9-0.8c-0.1-0.1-0.3-0.2-0.6-0.4c0.9-1.2,1-2.9,2.4-4
			c0.4,0,0,0.8,0.8,0.9c0,0,0.1,0,0.3-0.1c0.5-0.6-0.1-1.2,0-2.1c0.3-0.3,0.7-0.7,1.5-1.5c0.2,0,0.9-0.2,1.7-0.3
			c0.4,0.4,1.1,0.4,0.9,1.2c1.7,0.2,3.2,0.6,4.7,1.2c0.4,0.7,0,1.5-0.4,2.2c0.6,0.1,0.9,0.1,1.3,0.2c0.1,0.4,0.2,0.8,0.2,1.3
			c-0.4,0.4-1,0.6-1.3,1.4c0.7,2.1,0.6,4.3-0.5,6.1c0.1,1.1,0.8,0.5,1.1,0.8c0.7,1.2,0.1,1.9-1,2.4c0.2,1.2,0.6,2.4,0.4,3.4
			c-0.3,1.2,0.2,2.1,0.2,3.4c-0.1,0.8-1.3,0.7-1.8,1.2c-0.2,1.2,1,0.5,1.3,1c0.4,1.5-1.5,1.4-1.7,2.5c0,0.7,0,1.4,0.9,1.6
			c-0.2,1.1-1.2,1.6-1,2.6c-0.9,0.7-2-0.8-3,0.3c0.8,0.2,1.6,0.5,2.3,0.7c0.4,1.3-0.5,2.6,0.2,3.8c-1.6,2-1.1,4.2-1.2,6.5
			c-0.5,0.4-1.1,0.9-1.9,1.5c0.6,0.3,1,0.5,1.8,0.9c-1,0.7-1.2,1.8-2.1,2.4c0.2,0.4,0.9,0.4,0.6,1c-0.2,0.6-0.9,0.2-1.3,0.6
			c0.1,0.5,0.4,0.8,0.2,1.4c-0.2,0.5,0.2,1.2,0.3,2c-0.5,0.5-1,1.1-1.7,1.8c1.4,1,1.4,2.2,0.8,3.5c-0.3,0.3-0.9,0.5-1.2,1.2
			c0.1,0.6,0.3,1.3,0.4,2c-0.3,0.8-1.1,1.3-0.9,2.2c-0.5,0.1-0.9,0.3-1.3,0.4c0.1,0.8,1.3,0.7,1.3,1.5c-0.1,0.8-0.9,0.4-1.3,0.7
			c-0.4,0.5,0.3,0.5,0.5,0.9c-0.4,0.9-0.1,2.2-1.1,3c-0.9,0.8,0.1,2.6-1.7,2.7c0.1,0.5,0.2,0.8,0.2,1.3c-1,0.2-0.9,1.2-1.3,1.9
			c0.7,0.8,0.7,0.8,0.9,2.2c-1.3,0.4-0.3,1.8-1.1,2.6c-0.7,0.6-0.7,1.7-0.6,2.5c0.1,1.1-1.5,1.8-0.6,2.9c-0.5,0.5-1.1,0.7-1.4,1.5
			c0.1,0.4,0.2,1,0.3,1.6c-0.6,0.3-1.2,0.6-1.4,1.3c0.1,1.2,0.9,2.5,0.1,3.6c-0.9,1.1-0.8,2.4-1.5,3.6c-0.7,1.1-1.4,2.6-1,3.8
			c-0.3,1.2-1.6,1-1.6,2.2c0,0,0.2,0.2,0.4,0.3c-0.1,0.2-0.2,0.4-0.4,0.6c0.7,0.3,0.7,0.9,0.8,1.6c-0.5,0.6-1.7,0.3-1.8,1.3
			c-0.2,0.8,0.4,1.7-0.2,2.6c-0.4,0.6-0.4,1.5-0.3,2.2c-0.6,0.4-1.5,0.2-1.7,1.3c0.5,0.4,0.8,1,0.6,1.6c-0.2,0.7-0.8,1.3-1.6,1
			c-0.5,0.5-0.1,0.9-0.1,1.4c-0.4,0.5-1.2,0.7-1.4,1.5c0.2,1,0.4,2.1,0.6,3.2c-1.2,1.6,0.1,4.3-2.3,5.4c0.1,0.3,0.1,0.7,0.2,1.3
			c-0.4,0.5-1,1.1-1.4,1.6c0.4,1.3,0.1,2.1-1.2,2.4c0.1,0.5,0.1,0.9,0.2,1.2c0.1,0.2,0.4,0.4,0.6,0.6c-0.4,0.5-0.9,1.1-1.4,1.7
			c0.5,1.1,0.2,2.1,0,3.1c-0.5,0.3-1.1,0.6-1.3,1.4c0.4,0.7,1.2,1.4,0.8,2.8c-0.3,0.5-0.9,1.3-1.5,2.2c0.1,0.5,0.2,1,0.3,1.5
			c-0.6,0.8-0.8,1.7-2,2c-0.7,0.1-0.7,0.9-0.2,1.5c-0.5,0.5-0.2,1-0.2,1.6c-0.6,0.5-1.3,1-1.9,1.5c0.7,0.3,0.8,0.9,0.8,1.6
			c-0.3,0.2-0.6,0.3-0.9,0.5c-0.4,0.9,1.3,1.1,0.8,2c-0.2,1.1-1.8,1.2-1.7,2.2c0.1,1.2-1.5,1-1.3,1.9c-0.1,0.8,0.9,0.7,0.7,1.7
			c-0.4,0.4-0.9,1-1.4,1.6c0.2,1,0.3,1.8,0.5,2.7c-0.4-0.2-0.6-0.3-0.8-0.4c-1,0.7-0.5,1.7-0.4,2.7c-0.6,0.2-1.1,0.4-1.6,0.6
			c0.3,0.2,0.5,0.4,0.7,0.6c-0.3,0.3-0.5,0.7-0.9,1.1c0.3,1.5,0.6,3,0.8,4.4c-0.7,1-1.3,1.9-1.9,2.8c-0.5,0.4-0.8,0-1.2-0.1
			c-0.3-0.1-0.7,0.1-1.1,0.1c-0.3,0.5-0.5,1.1-0.8,1.7c0.3,0.3,1.2-0.1,1.5,0.8c-0.3,0.5-0.7,1.1-1.2,1.7c0.1,0.5,0.2,1,0.3,1.7
			c-0.4,0.5-0.9,1-1.3,1.3c0.2,2.1-1.1,3.5-1.2,5.3c0.4,0.3,0.6,0.8,0.7,1.5c-0.6,0.8-1.1,1.6-1.7,2.3c0.1,0.7,0.4,1.5,0.1,1.9
			c-0.5,0.8-0.6,1.6-0.6,2.5c0,0.8-0.2,1.7,0,2.6c0.1,0.5,0.4,1-0.1,1.5c-0.4,0.4,0.3,1-0.1,1.5c-0.2-0.1-0.4-0.3-0.7-0.4
			c-0.2,0.3-0.4,0.6-0.6,1c0.3,0.8-0.1,1.9,1,2.5c-0.6,0.9-1.3,1.8-2,2.8c-0.6,0.3-1.8,0.4-1.6,1.7c0.5,0.6,1-0.1,1.5,0.1
			c-0.4,1.6,0.4,3.1,0.4,4.6c-0.1,0.5-0.9,0.1-0.9,0.9c0.2,0.9,1.2,0.8,1.6,1.4c0.6,0,1-0.4,1.5,0c0,0.2,0.1,0.3,0.1,0.6
			c-0.6,0.8-2.1,0.1-2.3,1.4c-0.1,0.6-0.1,1.2,0.6,1.6c-0.1,0.3-0.3,0.6-0.3,0.9s0,0.5-0.2,0.7c-0.8,0.5-1.5-0.2-2.1-0.2
			c-0.4,0.4-0.3,0.6-0.2,0.9c0.3,0.5,0.9-0.1,1.2,0.5c-0.9,0.2-1.9,0.4-2.8,0.5c-0.3,0.4-0.6,0.8-0.7,1c0,0.7,0.3,0.9,0.8,1.1
			c-0.4,0.5-0.9,0.9-1.3,1.4c0.1,0-0.1,0-0.1-0.1c-0.1-0.9-0.4-1.6-1.4-1.6c-0.8,0-1.2-0.8-1.8-1c-0.2-0.6-0.4-1.2,0.4-2
			c-1.2,0.2-2.3,0-3.1,1c-1.3-0.2-2.3-1-3.4-1.8c-0.3-0.5,0.2-0.8,0.4-1.3c-1.8-1.1,0.1-3.1-1.1-4.6c0.4-0.4,0.8-0.8,1-1
			c0-1.1-0.4-1.8,0.1-2.6C1229.6,484.6,1228.7,484,1228.3,483.4z M1265.4,369.4c-0.5,0.6-0.9,1.1-1.3,1.8c1.3-0.2,2.3-0.4,3.2-0.6
			c-0.1-0.3-0.1-0.5-0.1-0.7C1266.7,369.8,1266.1,369.6,1265.4,369.4z M1236.7,462.5c0,0.2,0,0.3,0.1,0.5c0.4-0.1,1-0.4,1.2-0.2
			c1,0.7,0.9-0.2,1.7-0.8C1238.3,462.2,1237.5,462.3,1236.7,462.5z"/>
	</clipPath>

	</defs>
	<line class="st st14" x1="1227.6" y1="507.3" x2="1294.1" y2="264.4"/>
</g>
<g>
	<defs>
	<clipPath id="SVGID_30_">
		<path d="M1628.6,204.7c1-2.2,1.8-1.9,1.9-1.7c1.3,1.9,3.8,2.3,5.2,3.9c1.7-0.1,1.4-2.4,3.1-2.6
			c1.3,0,1.1,2,2.4,2.1c0.1-0.3,0.1-0.5,0.3-1.1c1.1,0.2,2.3,0.5,3.3,0.7c1.1-0.7,0.8-1.8,1.1-2.6c0.8,0.5,1.5-0.2,2.2-0.1
			c1,0.5,0,1.5,0.5,2.1c0.5,0.7,1.4,0.5,2.1,0.8c2.1,2.2,4.5,4.2,5.6,7.1c-2.6-0.2-2.6-0.2-4-1.6c-0.9,0.6,0.6,1.1,0.1,1.6
			c-0.8,1.1-2.4-0.1-3,1.1c-0.4,0.6,0.1,1,0.2,1.5c-0.2,0.8-1.1,0.8-1.4,1.4c-0.5-0.4-0.8-0.7-1.3-1.1c-0.9,0.6-1.9,1.2-2.7,1.8
			c-4.8-0.9-9.7,0-14.8-1.7c-0.7,0.4-1.9,1.2-2.9,1.9c-0.8-0.2-1.5-0.3-2.3-0.5c-0.6,0.4-1.4,0.9-1.9,1.2c-0.8,0-0.9-0.5-1.1-0.8
			c-0.9,0.1-1.9,0.2-2.9,0.3c-0.9,0.1-1.4-1.1-2.3-0.8c-1,0.3-1.2-1.6-2.3-0.7c-0.5,0.4-1.7-0.6-1.5,0.9c-0.5-0.1-1-0.2-1.4-0.1
			c-1.6,0.1-3.3,0-4.7,0.6c-1.5,0.6-2.7,0.8-4.1-0.2c-0.7-0.5-1.5-0.1-2.2,0.1c-1.9,0.4-3.8,0.5-5.6-0.6c-0.4-0.2-1.1-0.4-1.5-0.2
			c-3.4,1.6-6.7,0.7-10,0c-0.4-0.1-0.8-0.2-1.2-0.3c-0.6,0.4-1.3,0.8-2,1.3c-1.6-0.9-1.6-0.9-5.6-0.2c-0.1,0.3-0.2,0.7-0.3,1
			c-1.9,1.2-3.9-0.1-5.8-0.1c-1.7,0-3.6-0.5-5.3-1c-0.1,0.4-0.2,0.7-0.3,1.1c-0.8-0.1-0.9-0.9-1.4-1.5c-1,0.1-2,0.3-3.1,0.4
			c-0.9-1.3-2.9-0.6-4-2.1c-0.5,0.3-1.1,0.7-1.8,1.1c0.1-0.6,0.1-0.9,0.1-1.4c-1.1-0.2-1.7,0.9-2.7,1.2c-0.3-0.3-0.7-0.6-1.1-0.8
			c-0.9,0-1,0.7-1.1,1.4c-0.6,0.1-1.6,0.2-1.7,0.2c-1.7-1.1-3.4-0.9-5.3-0.5c-0.9,0.2-2-0.4-3.1-0.6c-0.1,0.2-0.1,0.5-0.3,0.8
			c-2.1,1-4.6-1.6-6.4,0.6c-1-0.6-1.8-1.2-2.9-1.9c-0.5-0.1-0.8,0.6-1.5,0.8s-0.8-1-1.5-0.9c-0.1,0.3-0.1,0.5-0.2,0.8
			c-0.7,0.6-1.4-0.5-2.1-0.2c-0.6,0.4-1.3,0.8-1.9,1.3c-2.2-0.2-4.2-1.3-5.7-0.7c-1.7-0.1-1.4-1.5-2.4-1.6c-0.1,0.3-0.2,0.6-0.4,1.1
			c-1.3,0.6-2.8,0.5-4.3,0.1c-2.8-0.6-5.7-1.7-8.4,0.5c-1.9,0-3.7,0-5.6,0c-0.1,0.3-0.2,0.7-0.3,0.9c-2,0.2-4,0-5.9-0.8
			c-1.1-0.5-2.7-0.6-3.9-0.2c-1.7,0.6-3.5-0.1-5.1,0.7c-0.4,0.2-1-0.2-1.6-0.3c-1.1,0.7-2.2,1.4-3.5,2.2c-1.1-1.1-2.1-2.7-4-1.2
			c-1.8-0.4-3.4,0.4-5.1,0.5c-0.5,0-0.9,0.2-1.3-0.3c-0.8-1-1.9-0.3-2.8-0.3c-0.4-0.5-0.8-1-1.2-1.4c-0.9,0-0.1,1-0.8,1.2
			c-1.5-0.3-3.1,0.2-4.6,0.5c-1.4,0.2-2.5,2.2-4.2,0.7c-0.5-0.5-0.2-1-0.1-1.5c-0.7-0.6-1.4,1-2.1-0.4c-0.2,1.8-1.4,2-2.2,2.7
			c-1.6,0-3-0.7-4.3-1.4c-1.4-0.8-2.7,0.8-4,0.3c-1.4-0.1-1.2-2-2.6-2.3c-0.7,1.1-1.3,2.4-3,2.8c-0.4-0.1-1-0.2-1.9-0.4
			c-0.6,0.4-1.4,0.9-2.3,1.5c-0.8-1.3-2-1.9-3.1-2.6c-0.9,0.4-1.7,0.8-1.7,1.9c-0.6,0.1-0.7-0.6-1.2-0.8c-1.3-0.3-0.9,0.9-1.3,1.4
			c-1.3,0.3-1.9-1.3-3.1-1.2c-1.3-0.2,0.1,2.4-2.1,1.5c-2.2-0.6-4.8,0.3-7.2-0.7c-0.1,0.4-0.2,0.8-0.4,1.6c-2.5-1.7-5.7,0.6-8.2-1.6
			c-0.4,0.6,0.7,1.1,0,1.9c-1.2,0.7-2.5-0.6-3.8-0.3c-0.1,0.4-0.1,0.7-0.2,0.9c-2.6-2.1-4.9-0.7-7.1,0.9c-1.3-1.3-2.9-1.2-4.5-1.6
			c-0.7-0.1-1,0.6-1.6,0.8c-0.4,0-0.6-0.3-1-0.9c-2.7,1.4-6,0.2-8.9,1.6c-0.9-0.1-1.1-1.6-2.4-1.2c-1,0.6-1.9,1.2-2.8,1.8
			c-0.8-0.2-1.5-0.3-2.2-0.5c-0.8,0.5-1.7,1.1-2.7,1.8c-1.5-0.9-3.2,0.1-4.8-0.5c-1.8-0.6-3.5-0.1-5.1,1.2c-0.6-0.2-1.4-0.5-2.1-0.7
			c-0.1,0.6-0.2,0.9-0.3,1.3c-0.5,0-0.7-0.4-1-0.9c-1.4,0.8-2.9,1.3-4.3-0.3c-0.7,0.4-1.3,0.9-1.9,1.2c-1,0-1.9-0.1-2.6-1.3
			c-1.8,2.1-4.8,1.5-6.6,3.5c-1.1-0.5-1.4-2.1-3-1.8c-0.4,0.8-0.5,2.2-2,1.1c-0.1,0.5-0.2,0.8-0.3,1.1c-2.4,0.2-3.3-2.7-5.8-2.8
			c-0.5,1.5-1.9,2.4-3.4,3.2c-1,0-0.9-1.2-1.6-1.5c-1,0.1-1.5,0.8-2.3,1.2c-0.4,0.8,0,1.9-0.9,2.5c-1.3,0.4-1.1-0.9-1.8-1.4
			c-1.2,1.6-2.7,3.1-5,3.1c0,1-0.8,1.4-1.6,1.8c-1.8-1.4-4.2-1.2-6.2-2c-1.7-0.7,0.2-3.9-2.7-3.9c0-0.7,0.4-1.3-0.3-1.9
			c1-1.2,2.1-2.4,3.1-3.6c-0.1-0.5-0.2-0.9-0.3-1.4c1.4-1.1,2.3,0.2,3.4,0.6c-0.4-1,0.1-2-0.6-2.9c0.2-1,1.9-1,1.6-2.7
			c1.2,0.4,2.3,0.8,3.3,1.1c0.9-0.6,1.6-1,2.1-1.4c0.6,0,0.7,0.4,1,0.7c1.2,0.1,1.9-0.5,2-1.7c1.8,0.2,3.6,0,5.1,1
			c2.4-0.3,2.6-3,5.3-3.7c0,0,1.2,0.7,1.4,0.5c1.6-1.6,4.1,0.7,5.2-1.5c1.6,0,2.9,0.3,4,1.3c0.1-1.1,0.8-1.5,1.6-1.9
			c1,0,0.9,1.2,1.7,1.5c2.1,0.6,4.5-1,6.9,0.7c0,0,0.3,0.5,0.6,0.9c1-0.4,1.9-0.2,2.7,0.5c0.8-0.4,1.5-0.9,1.6-1.9
			c1.3,1.3,3.1,1.1,4.7,1.6c0.5-0.3,0.9-0.6,1.3-0.9c1.3,0.3,2.6,0.6,3.9,0.9c0.4,0.4,0.4,1.2,1.4,1.4c0.1-1.1-0.9-1.7-1.2-2.6
			c0.3-0.6,0-1.3,0.7-1.8c0.7-0.4,1.2,0.1,1.9,0.1c0.5,0.7,1,1.4,1.5,2.1c0.8-0.1,1.3-0.5,1.8-0.9c0-0.9-0.8-1.7,0-2.6
			c1-0.6,1.9-1.2,2.6-1.7c2.9-0.3,2.2,2.1,2.6,3.2c0.9,0.3,1.1-0.1,1.5-0.4c-0.1-0.4-0.2-0.9-0.5-2c0.8,0.7,1.4,1.2,2.1,1.7
			c0.1-0.3,0.1-0.6,0.2-0.9c1.3-0.2,1.6-1.5,2.2-2.6c2.5,2.1,5.9,1.4,8.2,3.4c0.8-1.5,2.1-2.2,3.4-2.9c1.9,1.2,4,1.5,6.5,2.2
			c0.1,0.1,0.5,0.6,0.9,1.1c1.4-0.5,2.1-0.5,5,0.1c0-1.4-0.6-2.1-1.8-2.3c0.2-0.7,0.1-1.6,1.3-2.1c0.8,1.9,2.7,2.6,4.8,3.3
			c1.6-1.6,5-0.6,6-3.6c2.5,0.6,3.8,3.2,6.5,4.4c-0.2-1.4-0.3-2.5-0.4-3.7c0.4-0.3,0.9-0.6,1.3-0.9c1-0.1,0.9,1.1,1.8,1.5
			c1.7-1.4,4-0.3,6-0.8c0.2-0.5,0.3-0.8,0.4-1.2c1.9,0,3.6-0.4,5.4-1.2c0.1-0.1,0.2-0.4,0.3-0.6c0.9,0.4,1.1,1.4,1.7,2.1
			c1.1,0.4,1.5-1,2.4-1.1c1.3,0.4,2.5,0.7,4.1,1.2c0,0,0.3,0.5,0.6,1c1.9-0.4,3.8,0.3,5.5,0.6c1.6-0.1,1.3-1.9,2.4-2.3
			c1.1,0,0.9,1.7,2,1.5c1.2-0.5,0.5-1.9,0.9-2.4c2.6,0.6,5,1.1,7.4,1.6c0.1-0.3,0.2-0.6,0.3-0.8c0.4,0.5,0.8,1,1.1,1.5
			c0.5,0.1,1,0.2,1.5,0.3c0.3-0.5-0.3-0.9-0.2-1.5c1.3-0.4,2.7-0.4,4,0.1c0.2-1.1-1-1.5-0.6-2.4c2.6-0.4,2.6-0.4,3,2.2
			c0.2,0.1,0.4,0.2,0.7,0.2c0.3,0.1,0.5,0.1,0.8,0.2c0.1-0.2,0.3-0.5,0.2-0.5c-0.9-1-1-2-0.3-3c2,0.5,3.8,0.9,5.7,1.4
			c0.3-1,0.4-1.3,0.5-1.7c0.6-0.1,0.7,0.6,1.2,0.8c0.7,0.2,1-0.7,1.8-0.7c1.5,1.1,3.5,1.4,5.1,2.7c1.1,0.9,2.9,0.1,4.4-0.1
			c0.4,0.5,0.8,1,1.3,1.5c0.8-0.5,1.6-0.9,2.3-1.3c0.5,0.1,1,0.2,1.5,0.3c0.3,0.4,0.6,0.9,0.9,1.3c0.2,0,0.6,0.1,0.7,0
			c0.7-0.6,1.5-0.8,2-1.7c0.9-1.4,2.1-2.6,3.7-2.1c1.1-0.4,0.6-1.4,0.9-1.5c1.5,0.3,2.6,0.6,3.4,0.7c1.6-1.1,2.7-1.8,4-2.6
			c0.8,0.3,1.6,0.6,3,1c0.2,0.3,0.7,1,1.1,1.7c0.6-0.1,1.1-0.3,1.6-0.4c-0.1,0.4-0.1,0.8-0.2,1.2c1.2,0.8,2.8-0.5,4,0.5
			s2.5,1.1,4,0.7c0.9,0.2,0.9,2,2.3,1.6c0.3,0.1,1.8-1.7,2.7-3.1c0.7-0.4,1.2,0.1,1.9,0.1c0.3,0.4,0.5,0.9,0.9,1.4
			c1.2-0.6,2.4-0.1,3.6,0.1c1.2,0.3,2.5,0.3,3.4,1.3c1.2-0.6,0.7-1.9,1.4-2.6c1.2,0.6,1.2,2.3,2.4,2.8c1-0.1,1-0.8,1.1-1.5
			c1,0.3,2,0.5,3,0.8c1.1-0.7,2.2-1.4,3-2c2.1-0.7,3.8,0,5.8,0.3c0.4-1.7,1.9-2.5,3.4-3.2c1.2,0.2,2.3,0.5,3.7,0.8
			c1.2,1.5,1.9,3.8,4.3,4.3c0.4-0.9-0.8-1.2-0.7-2.1c2-0.9,4.1,1.2,5.9-0.3c1.2,1,1.4,3,3.7,2.4c0.9-0.9,0.4-2.8,1.9-3.6
			c2.9,1.6,6.5,1.5,10,1.8c0.5,0.7,0.9,1.4,1.4,2.2c1,0.1,2.2,0.2,3.2,0.3c0.9,2,2.1,3.2,3.8,3.9c0.7-1.2,0.1-2.2-0.4-3.2
			c0.6-1.4,2.3,0.1,3.1-1.2c0.4-0.7,1.5-1.3,2.6-0.9c0.1-1.2-1.3-1.7-1.1-2.9c1.7,0.3,3.4,0.5,4.8,1.5c1.2-0.6,0.6-1.8,1.1-2.3
			c4.9-0.8,8.9,2.4,13.4,3.1c3-1.6,3-1.6,7.7-0.6c0.9,1.9,3.1,2.5,4,4.8C1628.4,207.3,1628.1,204.8,1628.6,204.7
			c0,2.1,0.7,1.8,1.1,2.1c-0.1,0.4-0.1,0.7-0.2,1.1c0.6,0,1.1,0.5,1.7,0c-0.5-0.9-0.8-1.9-1.8-2.3
			C1629,205.7,1628.7,205.9,1628.6,204.7z M1322,215.9c-0.1,0.4-0.2,0.9-0.3,1.4c1.2,0.9,2.7-0.4,3.9,0.5c-0.4,1.2,0,2,1.2,2.5
			c1.2-1.1,1.1-2.2,0.2-3.3C1325.4,216.7,1323.7,216.3,1322,215.9z M1308,232.5c0.5-0.5,1-0.6,0.9-1.3c-0.5-0.2-0.3-1.3-1.4-1.4
			c-0.2,0.3-0.7,0.3-0.7,0.9C1307.1,231.1,1307.5,231.7,1308,232.5z"/>
	</clipPath>
	</defs>
	<path class="st st15" d="M1286.8,227.1c1.2-1.2,379.9-24.6,379.9-24.6"/>
</g>
<path class="st st20" d="M868.7,167.9"/>
<g>
	<defs>
	<clipPath id="SVGID_40_">
		<path d="M1161.7,233.8c-0.5,0.1-0.9,0.2-1.4,0.2c-1.2-0.8-0.4-2.4-1.2-3.3c-1.2-0.8-1.6,0.4-2.3,1.2
			c-2.5-6.4-4.7-12.8-12.2-14.4c-0.3-1-0.5-1.7-0.7-2.4c-0.4-0.3-0.4-0.3-2.3,0c-0.9-0.4-0.5-1.4-1-2.2c-0.9-1.1-2.8-1.5-3.6-3.5
			c-1.5,0.5-3.1-0.9-5-0.3c-1.9,0.6-3-2.6-5-1c-0.8-0.9-1.1-2-2.2-2.4c-0.9,1.3-2.3,1.2-3.7,1.5c-3.2-1.8-4.9-5.9-9.2-6
			c-1-0.1-0.9,1.7-2.3,1.2c-0.7-1-1.4-2.1-2.2-3.2c-2.1,2.4-4.7,0.4-7,0.8c-0.6-0.3-0.2-1.3-1-1.4c-0.1,0.2-0.3,0.4-0.6,0.7
			c-0.8,0.4-1.3-0.9-2.3-0.4c-1.1,0.6-2.1-0.3-2.5-1.4c-0.3-0.9-0.5-1.8-1.9-2.4c-1.8,0.9-3.9-0.8-6.2,0c-0.3-1.7-0.5-3.1-0.7-4.3
			c-1.1-0.5-2,0-3.4,0.1c-0.9-0.6-2.1-1.5-3.2-2.2c-1.2,0.1-2.2,0.8-2.9-0.8c-0.6,1.3-1,2.3-1.8,4c0.2,1.1,0.6,3.3,1,5.7
			c3.7,1.1,5.5,4.7,8.2,7.6c0.3-0.3,0.6-0.6,1-1.1c2.3,1.2,2.1,4.9,5.4,5c-0.5,0.8-0.7,1-0.9,1.3c2.9,1.9,5.5,4.3,8,6.7
			s5,4.6,7.2,7.3c0.3,0.4,0.8,0.8,1.1,0.8c4.4-0.7,5.4,3.2,7.3,5.6c1.6,2.1,1.4,2.3,4.1,2.4c0.5,0.5-0.3,0.7-0.3,1.4
			c1.4,0.5,3.6,0.5,3.1,2.9c1.7,1.3,3.2,2.5,5,3.8c-1.4,1.6-3.6,1.9-4.3,1.4c-1.3-0.8-2.1,0.5-3.4-0.1c-1.2-0.5-3,0.4-4.4,0.6
			c-0.8-0.6-1.5-1-2.2-1.5c-2.5,0.3-5,1.4-7.5-0.3c-0.2-0.2-0.6-0.2-0.8-0.1c-3.4,1.1-7.1-0.6-10.6,1c-1-0.9-2.1-1.9-2.9-2.6
			c-2.1,0.6-4,0.1-5.4,2.1c-1-0.8-2-1.7-2.9-2.5c-2.3-0.1-3.2,2.6-5.5,2c-0.7-0.6-1.4-1.3-2-1.9c-3.9,1.6-7.9-0.5-11.4,1.3
			c-1.3-0.9-2.3-1.6-3.5-2.5c-3.9,1-7.9,0.8-11.9,0.2c-0.6-0.1-0.7,0.5-1.2,0.9c-1.3-0.1-1.7-1.2-2.2-2.1c-1.2-0.5-1.5,0.6-2.1,1.4
			c-2.6-1.3-5-2.1-7.8-1.9c-1.3,0.1-2.5-0.7-3.7-1.5c-1.6-0.9-3.9-1.4-6.2-0.5c-0.7-0.6-1.4-1.2-1.9-1.8c-2.8,0.7-5.4,0.9-8.2,0.2
			c-0.7-0.5-1.8-1.2-2.8-2c-1.8,1.8-3.3-0.7-5-0.2c-1.8,0.5-3.7,0.7-5.4,1c-2.1-1.2-4.7-0.8-6.2-2.7c-1.4,0.3-3-0.1-3.8,1.7
			c-1.6-2-4.2-1.6-6.3-2.9c-2.3,1.1-4.9-0.5-7.5,0.4c-2.9-2-5.8-4.1-9-6.4c-0.4,0.9-0.8,1.7-1.3,2.8c-3.6-2.1-7.1-3.5-10.8-4.5
			c-3.7-0.9-7.1-3-10.9-4.6c-0.6,0.1-1.5,0.3-2.8,0.5c-0.2-2-2.6-2.1-3.1-4.1c-3.3,0.6-5.2-3-8.3-2.7c-0.3,0.4-0.6,0.8-0.9,1.2
			c-1.1-0.5-0.4-1.8-1.2-2.5c-1.3-1.2-3.3-0.9-4.8-1.8c-0.1-0.3-0.1-0.6-0.3-1.3c-2.3,0.7-4.7-0.6-7,0.2c-0.9-0.5-1.8-1.1-2.1-2.4
			c-0.7,0.1-1.5,0.1-2.3,0.2c-0.3-0.5-0.6-1-0.9-1.5c-0.7,0-1.5,0.1-2.2,0.1c-2.2-3.6-6.7-2.8-9.6-5.1c-1.6-2-1.2-5.8-5.2-6
			c0.1-1.7-1-2.9-2.5-3.4c-2.2-0.7-3.5-2.9-5.8-3.5c-0.9-0.2-2.2-0.7-1.9-2.1c-1.5-0.7-3.2-0.2-4.1-1.6c-0.9,0.2-1.9,0.3-2.8,0.5
			c0.4,2.5,0.9,5,1.3,7.4c1,0,1.6,0.6,2.2,1.4c1.3,1.8,3,2.9,5.3,3.5c0.2,0.6,0.4,1.3,0.6,1.9c0.5,0.5,0.9,0.2,1.4,0.2
			c1.1,0.5,0.4,1.8,1.3,2.6c0.6-0.1,1.3-0.1,2.1-0.2c1.4,1.4,0,4.2,2.9,5.2c1-0.2,2.3-0.4,3.7-0.6c0,0.8,0.7-0.1,0.3,0.4
			c-0.2,0.3-0.4,0.5-0.6,0.9c0.5,0.7,1.1,1.5,1.6,2.3c0.7-0.1,1.3-0.2,1.9-0.3c0.8,1.8,3,2.4,3.4,4.1c1.1,0,1.4-0.6,1.8-1.1
			c2,2.9,5.8,2.2,8.6,4.2c0.8-0.1,1.8-0.3,2.7-0.5c0.9,0.7,0.6,1.6,0.9,2.3c1.1,0.7,2.1-0.1,3.4-0.1c1.6,1.5,4.2,2.2,5.3,4.6
			c0.8-0.7,1.6-1.3,2.9-1.3c0.7,1,1.4,2,2.3,3.2c1.2-0.2,2.5-0.4,3.9-0.7c0.8,1.2,1.6,2.3,2.4,3.5c1.5-0.3,3.2-0.6,4.9-0.9
			c0.5,2.4,2.7,2.3,4.3,3.1c1-0.2,2.3-0.4,3.5-0.6c2,3.4,6.7,1.1,8.4,4.2c1.2,0,1.4-0.7,1.8-1.1c2.2,0.9,3.4,2.8,4.5,4.7
			c1.3,0.6,1.4-0.9,2.6-1.3c1.9,1.2,4.1,2.5,6.9,1.8c0.9-0.2,2.3,0.2,2.8,0.9c1.6,2,3.9,2.4,6.2,3.2c1-0.2,2.2-0.4,3.9-0.7
			c0.8,0.7,1.9,1.6,2.7,2.3c2.2,0.3,3.4-3.1,5.6-0.9c0.6-0.3,0.5-1.2,1.3-1.1c0.9-0.2,1.1,0.4,1.2,1c2,1.7,4.3,0.8,6.2,0.6
			c1.3,0.5,1.7,1.5,2.3,2.4c0.9-0.2,1.8-0.3,2.9-0.5c0.6,0.6,1.3,1.2,2,1.8c0.6-1.2,1.9-1.7,0.3-4c2.5,1.6,4.7,1.1,5.1,3.4
			c0.7,0.6,1.5,0,2.3,0c0.7,0.5,1.5,1,2.3,1.5c1.5-0.3,3.1-0.5,4.6-0.8c0.7,0.8,1,1.9,2.3,2.4c2.2-1,4.5,0.9,6.8-0.3
			c0.7,2.4,3.3,1.6,4.2,3.3c2.7-1.3,5.6,0.1,8.2-0.6c2.6-0.7,5.1-0.1,7,0c2,0.6,1.8,2.8,4,2.8c0.2-0.1,1,0.2,1.6-0.5
			c1.2-1.3,2.4-1.3,4.1-0.7c2.6,0.9,5.1,1.2,7.7-0.8c1.1-0.8,3-0.6,4.7-0.9c1.5,1.7,4.1,2,6,1.5c4.1-0.9,8.3,0.1,12.3-1
			c1.1,1-1.2,1.6-0.1,2.4c2.1,1.4,3-1.8,4.9-1.3c1.3,0.3,0.5,1.7,1.3,2.4c1.6-0.2,3.5,2.2,4.9-0.6c0.8,0.5,1.4,1,2.2,1.5
			c0.3-0.1,0.9-0.1,1.1-0.4c0.7-1.1,1.7-1.2,2.8-1c0.2,0.4,0.4,0.8,0.6,1.4c1.6-0.3,3.3-0.6,4.8-0.8c0.8,0.6,1.4,1.1,2,1.5
			c2.1-1.7,4.6-1.3,7-2c0.3,1.5,0.5,2.9,0.8,4.4c-1,1-2.8,0.4-4.4,1.4c0.2,1,0.4,2.2,0.6,3.5c-0.9-0.4-1.4-0.6-1.8-0.8
			c-2.1,0.7-1.7,2.8-2.6,4.2c-0.9,1.2-2.9,1.5-2.5,3.4c-1.1,0.4-1.5-0.2-2-0.5c-0.6,1-1.9,1.8-1.8,3.1c0,0.9-0.5,1.7-1,2
			c-3.3,1.4-4.6,4.8-6.7,7.1c-1.1,0.2-2,0.5-2.7-0.4c-1.1,2.2-2,4.5-2,6.9c-1.4,0.2-2.3,0.4-3.4,0.6c-0.8,1.7-2.7,2.8-2.7,5.4
			c-1.6,0.1-3,1.2-4.4,1.5c-2,0.4-1.3,2.7-3.1,3.2c-1.5,0.4-3.3,0.9-3.6,2.8c-1.4,0.6-2.4-0.9-3.7-0.3c-0.8,0.4-1,1.2-1.6,1.7
			c0.2,0.9,0.3,1.9,0.6,3.2c0.9,0.5,2.2,1.2,3.2,1.8c0,1.5,1,2.7-0.2,3.9c0.9,1.3,1.8,2.5,2.8,3.9c0.4,0.3,1.5-0.5,1.7,0.8
			c0.3-0.1,0.6-0.1,0.9-0.2c-0.4-1.4,1.7-0.8,1.6-1.8c-0.2-1.1,0.6-1.7,1.1-2.7c1.2-0.2,2.6-0.4,3.9-0.7c-0.1-1.9,1.2-2.9,2.1-4
			c0.9-0.7,2.3,0.1,3.2-1.5c-0.3-2.5,2-3.5,4-4.2c2.4-0.9,3.5-2.7,4.7-4.7c-0.7-0.4-1.4-0.8-1-2c2.7-0.1,4.6-2.2,6.9-3.7
			c-0.2-1-0.3-2-0.6-3.5c1.2,0.7,2,1.3,3,1.9c2.4-1.5,4.7-3,7.1-4.5c-0.7-0.9-2.2-1.1-1.1-2.4c1-0.7,2.5,0,3.2-1.2
			c-0.7-0.4-1.4-0.8-1-2.1c1.4,0.5,2.2-2.1,3.8-1c2.5-1.3,3.6-3.8,5.2-5.9c-0.3-0.3-0.7-0.5-1-0.8c0.4-1.1,1.4-1.7,2.4-2.4
			c-0.9-0.6-1.7-1.1-0.9-2.2c1.4-0.5,2.1,1,3.2,1.2c0.4-0.8,0-1.9,0.9-2.5s0.4-1.7,1-2.6c1.9,0.2,3.2-1.1,4.7-2.1
			c0.3-0.8-0.7-1.8,0.5-2.8c2.1,1.5,4.2,0.1,6.1,0.1c0.9-1.1,1.6-2,2.2-2.7c-0.4-2.4-0.5-4.7-2.2-6.6c2.4,0.8,4.2,0.2,5.6-1.3
			c1,0,1.7,1.3,2.9,0.1c0.3-2.6,0.6-5.5,0.9-8.4c1.2-0.2,2.3-0.4,3.4-0.6C1162,235.7,1161.8,234.7,1161.7,233.8z M1136.3,226.4
			c4.1,0.2,6.2,3.7,9.7,4.9c-0.4,1.2,0.7,2.2,0,3.3c-2.2,0.1-0.8,2.8-2.6,3.4c-1.8,0.4-3.9,0.3-5.2,1.1c-2.2-0.3-3-2.1-4.5-3.2
			c-1,0.1-2.1,0.3-3.5,0.4c-1.6-3.9-6.3-4.4-8.5-8.1c-0.7,0.1-1.4,0.2-2.3,0.4c-0.3-1.5-0.5-2.9-0.7-4.2c-2.3-0.1-3.6-1.8-5.5-2.9
			c-0.2-1.3-0.5-2.6-0.6-3.5c-1.5-2-3.2-0.5-4.6-0.9c-0.4-2.1-0.7-4.2-1.1-6.2c1.3-0.3,2.2-0.3,3.3,0.3c0.8,0.4,2-0.6,2.9-0.1
			c1.5,0.9-0.5,1.5,0.3,1.9c0.3,0.5,0.6,1,0.9,1.5c0.9-1,1.1-2,2.2-2.4c2.3,0.3,2.6,2.9,4.2,4.1c1,0.2,1.1-0.9,1.9-1.1
			c1.8,2.3,4,4.1,6.7,5.5c0.9-0.1,1.8-0.3,2.6-0.4C1134.5,221.3,1136.3,223.3,1136.3,226.4z M1098.7,207.6c0.8,0.8,3.4-0.7,2.9,1.7
			c-0.7,0.6-1.6,0.8-2.6,0.4C1098.9,209.1,1098.8,208.3,1098.7,207.6z"/>
	</clipPath>
	</defs>
	<polyline class="st st21" points="1064,321.8 1168.7,235.5 1080,187.6 1134.7,245.9 1008.9,240.4 868.7,179.9 	"/>
</g>
<g>
	<defs>
    	<clipPath id='SVGID_41_'>
		<path id="SVGID_41_" d="M1452,415.3c-1.1,0.9-2.4,0.7-3.7,0.6c-0.7-0.5,0-1.3-0.5-1.8c-0.4-0.2-0.4,0.4-1.1,0.3
			c-0.6-0.3,0.4-1.5-0.6-2c-0.7-0.4-1.2-1.2-2.1-1.3c0-2.7,0-5.3,0-8.2c0.4-0.3,0.9-0.7,1.3-1c0-1.4,0-2.5,0-3.6
			c0.6-0.6,1.6-0.5,1.9-1.4c-0.2-0.2-0.3-0.3-0.5-0.5c0.1-0.1,0.1-0.4,0.2-0.4c1.3-0.1,2.1-1,2.2-2c0.3-1.6,1.3-2.7,2.2-3.7
			c2-2.1,3.8-4.6,6.4-6c0.6-0.3,0.7-1,0.8-1.6c0.6,0,1,0,1.6,0c1.2-2.2,4.4-2.6,5.2-5.4c0.3,0.2,0.5,0.5,0.9,0.9
			c2.1-2.2,5.1-3.3,7-5.5c0.7-0.2,1,0.2,1.4,0.7c1.3-2.1,3.8-2.6,5.4-4.3c1.7-1.7,3.9-2.4,5.9-3.7c0.2,0.1,0.4,0.3,0.7,0.6
			c1.4-0.9,2.9-1.7,4-2.3c4.4-1,8.4-1.2,12.4-1c0.8,0.1,1.1-0.7,2.1-0.7c0.7,0.4,1.2,2,2.7,1.2c2,2.8,5,3.9,7.5,5.6
			c0.3,1.4-1.4,1.6-1.3,2.7c0.3,0.9,1.1,0.2,1.7,0.5c0.4,0.9,0.7,2,2,2.1c0.2,0.9,1.2,1.6,0.9,2.6c-0.2,0.8,1,1.5,0.1,2.5
			c-0.4,0.4,0.6,0.8,0.6,1.3c0,1,0.1,1.9,0.6,2.7c0.5,0.8-0.7,1.4-0.6,2.4c0.1,0.9-0.3,2,0.1,2.6c1.4,2,0.2,3.4-0.9,4.8
			c-0.2,0.3-0.4,0.5-0.4,0.6c-0.3,0.9,0.7,1,0.6,1.6c-0.2,1-1.5,0.6-2,1.9c0.4,1.5-0.4,3.4-0.7,5.2c-0.2,1.1-0.8,2.1-1.7,3
			c-1.3,1.2-2.4,2.5-2.2,4.4c0.1,0.8-0.7,1-1,1.6c-0.6,0.9-0.4,1.6,0.4,2.3c-2.5,0.7-2.5,0.7-3.3,4.5c-2.3,2.7-4.6,5.5-5.5,9.2
			c-2.3,1.1-3.9,2.7-3.7,5.6c-1.4,0.4-2.2,1.6-3.3,2.7c0.7,2.2-2.2,3.1-2,5.3c-1.2,1.3-2.9,2.4-3.2,4.3c-0.2,1.1-0.6,2-0.7,3
			s-0.5,1.9-1.2,2.5c-1.6,1.4-1.8,3.3-2.3,5c-0.4,0.1-0.8,0.3-1.3,0.4c0.4,0.4,0.7,0.7,1,0.9c2.3,0.8,4.4-1,6.6-0.5
			c0.6-0.3,0.4-0.8,0.7-1.3c0.6,0.7,1.4,0.8,2.2,0.6c0.1-0.4,0.3-0.7,0.5-1.5c0.4,0.8,0.7,1.5,1,2.2c0.2-0.2,0.4-0.3,0.5-0.5
			c0,0.7,0,1.5,0,2.2c-0.1,0.1-0.2,0.2-0.2,0.2c-2-0.8-2.9,1.8-4.7,1.4c-0.9,0.9-1.7,1.7-2.6,2.6c-0.8,0-1.5,0.2-2-0.7
			c-1.5,4.5-4.9,6-9.2,6.1c-0.4-0.7-0.4-1.6-1.4-1.5c-0.7-2.7-1.2-5.5-0.8-8.3c1.7-1.6,1.2-4.5,3.3-5.9c-0.2-0.2-0.4-0.4-0.6-0.6
			c0.8-1.9,2-3.8,1.9-6c1.7-0.5,1.6-2.4,2.6-3.5c-0.7-1.8,2.3-2.2,1.3-3.9c0.9-0.9,1.7-1.7,2.6-2.6c-0.1-1.7,0.8-2.7,2.4-3.2
			c1.3-1.5,1.1-4.1,3.6-4.8c-0.1-2.5,1.8-3.8,3.2-5.3c0-1.4,1-2.4,0.9-4.1c0.6,0.7,1,1.1,1.8,0.7c-0.5-3.2,2.1-4.8,4-6.8
			c-0.7-0.5-0.8-1.2-0.5-2.2c0.1-0.2,0.4-0.2,0.8-0.2c1.6-2.3,2.1-5.3,4.4-7c-0.2-1.4,0.6-2.3,1.3-3.6c-0.3-2.7,1.7-5.4,1.4-8.4
			c0.4-0.4,0.8-0.7,1.2-1.2c0.2-3.6,0.2-7.1-0.7-10.6c-0.4-1.1-1.3-2.1-1.2-3.6c-1.9-0.3-2.5-2-3-2.8c-0.9-1.2-1.8-0.4-2.2-1
			c-0.1-0.3-0.2-0.6-0.2-0.9c-0.2-0.1-0.4-0.2-0.6-0.2c-2-0.2-4,0.2-6-0.6c-1.7-0.6-3.5,0.5-5.1,1c-0.8,0.2-1.5,0.1-2.1,0.2
			c-0.8,0.1-0.1,1.2-1.1,1.4c-2.2,0.5-4.1,1.9-5.9,3.3c-2.1,1.6-4.4,2.4-7,2c-0.5,0.7,0.3,0.7,0.4,1.3c-0.5,2-2.7,2.2-4.2,3.2
			c-0.8,0.5-2,0.6-2.9,1c-1,0.5-0.9,2-1.9,2.5c-0.4,0-0.9,0-1.3,0c-0.4,1.9-2.2,2.4-3.4,3.5c-1.2,1.1-2.3,2.4-3.5,3.5
			c-0.4,0.4-0.8,0.9-1.6,1.1c-0.8,0.2-1.3,1.1-1,2.3c-1,0.1-1.7,0.8-2.4,1.6c-0.3-0.3-0.4-0.4-0.8-0.8c-0.1,1.8-1.4,3.2-0.7,5.1
			c-0.7,0.4-1.3,0.8-2,1.2c-0.2,0.8-1,0.1-1.4,0.8c0.2,0.2,0.4,0.5,0.7,0.7c-0.1,1.4-1.7,2.2-1.1,4.2c0.4,0.8,2.2,0.8,2.5,2.4
			C1452,412.9,1452,414.1,1452,415.3z"/>
		<path id="SVGID_42_" d="M1500,502.2c0,1.1,0,2.1,0,3.2c-0.4-0.3-0.6-0.5-1-0.9c-0.4,1.5-0.1,2.9-0.2,4.3c0,0.8-0.2,1.8,0.2,2.2
			c0.6,0.8-0.5,1.7,0.5,2.3c-0.4,0.8-0.4,1.8-0.8,2.3c-0.8,0.9-0.3,1.9-0.6,2.8c-0.4,0.3-0.6,0.9-1.3,0.9c-0.7,0-0.8,0.7-1.3,0.9
			c0,0.4,0,0.9,0,1.2c-1.4,2-3.3,3.1-5.2,4.6c-1.4-1-3.4-0.8-4.6-2.4c0-2.5,0-5,0-7.4c0.5-0.5,1.1-0.1,1.6-0.3
			c0.7-0.7-0.2-1.8,0.5-2.4c0.7-0.6-0.6-1.5,0.5-1.9c-0.4-1,0.7-1.6,0.6-2.4c-0.2-1,1.1-1.4,0.7-2.2c0.6-0.6,1.6,0,1.8-1.2
			c-0.3-2.4,2-3.9,2.3-6.2c0.7-0.6,1.5,0,2.2-0.3c0.6-0.2,0.1-1.1,1-1.3c0.5-0.1,0.8,0.6,1.3,1c0,0.6,0,1.3,0,1.9
			C1498.6,501.5,1499.6,501.4,1500,502.2z"/>
    	</clipPath>
	</defs>
	<path class="st st23" d="M1454,423.9c-2,0.7-8.7-22.1-8.7-22.1l29.3-28.5l30.3-2.9l14.4,15.1l-40.5,82.2l15,59.5"/>
</g>
<g>
	<defs>
    	<clipPath id='SVGID_50_'>
		<path d="M1434.5-106.9c-1.4-2-0.8-2.5-0.6-2.5c2.3-0.2,3.9-2.2,5.9-2.6c0.7-1.5-1.4-2.4-0.7-4c0.6-1.1,2.3,0,3-1.1    c-0.2-0.2-0.4-0.3-0.8-0.8c0.7-0.9,1.6-1.8,2.2-2.5c-0.1-1.3-1.2-1.6-1.7-2.2c0.8-0.5,0.6-1.4,1-2c0.9-0.6,1.3,0.7,2.1,0.6    c0.9-0.1,1.1-1,1.7-1.4c2.9-0.8,5.9-1.9,8.9-1.4c-1.4,2.2-1.4,2.2-3.4,2.7c0.1,1.1,1.3,0,1.4,0.7c0.6,1.2-1.3,2-0.5,3.2    c0.3,0.6,0.9,0.4,1.4,0.6c0.6,0.6,0.2,1.4,0.5,1.9c-0.6,0.2-1,0.4-1.6,0.6c0.1,1.1,0.1,2.2,0.2,3.2c-3.1,3.7-4.8,8.5-8.7,12.1    c0,0.8,0.1,2.2,0.2,3.5c-0.6,0.6-1,1.2-1.6,1.8c0.1,0.7,0.1,1.7,0.1,2.2c-0.4,0.7-0.9,0.5-1.2,0.6c-0.4,0.8-0.8,1.8-1.2,2.7    c-0.4,0.8-1.6,0.7-1.8,1.6c-0.2,1-2,0.3-1.7,1.7c0.1,0.6-1.4,1.2,0,1.7c-0.3,0.4-0.7,0.8-0.8,1.2c-0.7,1.4-1.6,2.9-1.8,4.4    c-0.2,1.6-0.6,2.7-2.2,3.5c-0.8,0.4-0.8,1.3-1,2c-0.6,1.9-1.4,3.6-3.3,4.6c-0.4,0.3-0.9,0.8-0.9,1.2c-0.3,3.7-2.7,6.2-4.9,8.7    c-0.3,0.3-0.6,0.6-0.8,0.9c0.1,0.7,0.1,1.5,0.2,2.4c-1.6,1-1.6,1-2.9,4.8c0.2,0.2,0.5,0.5,0.7,0.8c0.1,2.2-2,3.4-2.9,5    c-0.8,1.5-2.2,2.9-3.5,4.1c0.3,0.3,0.5,0.5,0.8,0.8c-0.5,0.6-1.2,0.3-2,0.5c-0.4,0.9-0.7,1.9-1.2,2.9c-1.6,0.1-1.9,2.2-3.8,2.5    c0,0.6,0.1,1.3,0.1,2.1c-0.5-0.4-0.7-0.5-1.2-0.8c-0.7,0.9,0,1.9-0.3,2.9c-0.4,0.1-0.9,0.3-1.2,0.6c-0.4,0.8,0.1,1.2,0.7,1.6    c-0.2,0.6-0.6,1.5-0.7,1.6c-1.8,0.9-2.5,2.5-3,4.4c-0.3,0.9-1.3,1.5-2,2.4c0.1,0.2,0.4,0.3,0.6,0.7c-0.2,2.3-3.6,3.2-2.6,5.9    c-1,0.6-1.9,1-3.1,1.6c-0.3,0.4,0.1,1,0,1.7s-1.3,0.2-1.5,0.9c0.2,0.2,0.4,0.3,0.6,0.6c0.2,0.9-1.1,1-1.2,1.7    c0.1,0.7,0.1,1.5,0.2,2.3c-1.3,1.8-3.2,3-3.4,4.6c-0.9,1.4-2,0.5-2.6,1.3c0.2,0.2,0.4,0.5,0.8,0.9c-0.1,1.4-0.9,2.7-2,3.8    c-1.9,2.1-4.3,4.1-3.7,7.6c-0.9,1.7-1.8,3.2-2.7,4.9c0.2,0.2,0.5,0.5,0.6,0.7c-0.8,1.8-2,3.5-3.6,4.8c-1,0.7-1.8,2.1-2.1,3.3    c-0.3,1.8-1.8,3-1.9,4.8c0,0.4-0.7,0.8-1,1.2c0.1,1.3,0.1,2.6,0.2,4.1c-1.5,0.4-3.4,0.5-3,2.9c-1.2,1.4-1.3,3.2-2.1,4.7    c-0.2,0.4-0.3,0.9-0.9,1c-1.3,0.2-1.2,1.5-1.6,2.3c-0.6,0.1-1.3,0.2-1.8,0.4c-0.4,0.8,0.8,0.6,0.7,1.3c-1,1.2-1.3,2.8-1.8,4.3    c-0.5,1.3,0.7,3.3-1.4,4c-0.7,0.2-1-0.3-1.4-0.6c-0.9,0.3,0.2,1.7-1.4,1.6c1.5,1.1,1.1,2.2,1.3,3.2c-0.8,1.4-2.1,2.3-3.3,3.1    c-1.4,0.8-0.6,2.7-1.7,3.6c-0.8,1.2-2.3,0.1-3.3,1.1c0.6,1.1,1.5,2.3,1,4c-0.3,0.3-0.7,0.8-1.3,1.5c0.1,0.7,0.1,1.7,0.2,2.7    c-1.5,0.1-2.6,0.8-3.8,1.4c-0.1,1-0.1,1.9,0.8,2.4c-0.2,0.6-0.9,0.3-1.3,0.7c-0.9,1,0.3,1.2,0.6,1.8c-0.4,1.3-2.1,1-2.6,2.1    c-0.8,1,2.1,1.1,0.3,2.6c-1.6,1.6-2.1,4.3-4.1,5.9c0.3,0.3,0.6,0.6,1.2,1.1c-2.7,1.3-2.3,5.3-5.4,6.4c0.3,0.6,1.3-0.1,1.7,0.9    c0,1.4-1.7,1.9-2.1,3.2c0.3,0.3,0.6,0.4,0.7,0.6c-3.1,1.2-3,3.9-2.7,6.6c-1.8,0.5-2.5,1.9-3.6,3.1c-0.4,0.6,0,1.2-0.1,1.8    c-0.2,0.3-0.6,0.4-1.3,0.4c-0.1,3-2.8,5.3-3,8.5c-0.5,0.7-1.9,0.2-2.2,1.5c0,1.2,0.1,2.2,0.2,3.3c-0.6,0.6-1,1.2-1.5,1.7    c0,0.9,0.1,2,0.2,3.2c-1.5,0.9-1.5,2.8-2.8,3.9c-1.4,1.3-1.8,3-1.5,5c-0.5,0.4-1.1,1-1.6,1.5c0.5,0.4,0.7,0.6,1,0.9    c-0.2,0.4-0.7,0.4-1.3,0.4c0,1.6-0.3,3.2-2.4,3.6c0,0.8,0.1,1.6,0.1,2.2c-0.5,0.9-1,1.6-2.4,1.6c0.9,2.6-1,4.9-0.2,7.5    c-1,0.7-2.5,0.2-3,1.7c0.5,0.7,1.7,1.5,0,2.3c0.4,0.3,0.6,0.6,0.8,0.8c-1,2.2-4,1.6-5.3,3.7c1.1,1.2,1.2,2.8,1.1,4.5    c-0.5,0.9-1.5,0.2-2.1,0.7c-0.4,0.9,0,1.7-0.1,2.6c0.5,0.7,1.7,0.9,1.7,2c-0.3,1.3-1.3,0.5-2.1,0.9c0.8,1.8,1.4,3.9,0.3,5.9    c0.9,0.5,0.8,1.4,0.8,2.3c-2.1,0.9-3.1,3.1-4.8,4.4c-1.4,1.1-3.3-2.1-4.7,0.4c-0.6-0.3-0.9-1-1.8-0.7c-0.6-1.5-1.1-3-1.6-4.5    c-0.5-0.2-0.9-0.3-1.4-0.4c-0.3-1.8,1.3-1.9,2.2-2.7c-1.1-0.1-1.7-1.1-2.8-0.9c-0.8-0.7,0.1-2.1-1.6-2.7c0.9-0.8,1.8-1.6,2.6-2.3    c-0.1-1.1-0.1-1.9-0.2-2.5c0.3-0.5,0.7-0.4,1.1-0.5c0.7-1,0.5-1.9-0.5-2.6c1.1-1.5,1.8-3.1,3.4-4c0.9-2.2-1.3-3.7-0.6-6.4    c0,0,1.2-0.7,1.1-1c-0.6-2.2,2.6-3.2,1.2-5.3c0.8-1.4,1.7-2.4,3.1-2.8c-0.9-0.6-0.9-1.4-0.9-2.3c0.5-0.9,1.5-0.2,2.1-0.7    c1.6-1.5,1.3-4.4,4-5.7c0,0,0.6,0,1.1-0.1c0.1-1.1,0.8-1.8,1.8-2.1c0-0.9,0-1.7-0.9-2.3c1.8-0.5,2.5-2.2,3.7-3.3    c0-0.6-0.1-1.1-0.1-1.6c0.9-1,1.8-2,2.7-3c0.5-0.2,1.2,0.2,1.9-0.5c-0.9-0.6-1.9,0-2.9-0.2c-0.4-0.6-1.1-0.6-1.2-1.5    c0-0.8,0.7-1,1-1.6c0.9-0.1,1.7-0.2,2.6-0.3c0.3-0.7,0.2-1.4,0.1-2c-0.8-0.4-1.9-0.1-2.3-1.3c0-1.2-0.1-2.2-0.2-3.1    c1.2-2.7,2.9-0.9,4.1-0.7c0.7-0.6,0.5-1,0.4-1.5c-0.4-0.1-0.9-0.3-2-0.5c1-0.4,1.7-0.6,2.5-1c-0.2-0.2-0.5-0.4-0.7-0.6    c0.5-1.2-0.5-2.1-1.2-3.2c3.1-1.1,4.1-4.5,7-5.5c-0.9-1.4-0.9-2.9-0.9-4.4c2-1.1,3.3-2.8,5.1-4.6c0.1,0,0.8-0.1,1.4-0.2    c0.3-1.5,0.6-2.1,2.5-4.3c-1.2-0.7-2.1-0.5-2.9,0.4c-0.5-0.5-1.3-0.9-1.2-2.2c2,0.2,3.6-1.1,5.2-2.6c-0.6-2.2,1.9-4.7-0.2-7    c1.7-1.9,4.7-1.7,7-3.5c-1.3-0.5-2.3-1-3.4-1.5c-0.1-0.5-0.1-1.1-0.1-1.6c0.4-0.9,1.4-0.2,2.2-0.8c-0.4-2.2,1.7-3.6,2.2-5.6    c-0.3-0.4-0.6-0.7-0.8-0.9c0.9-1.7,1.4-3.3,1.6-5.3c0-0.1-0.3-0.4-0.4-0.6c0.8-0.6,1.8-0.3,2.7-0.5c0.9-0.8-0.1-1.8,0.2-2.6    c1-0.9,1.8-1.8,3.1-3c0,0,0.6,0,1.2,0c0.6-1.9,2.1-3.2,3.2-4.5c0.7-1.4-1-2.1-0.8-3.2c0.5-1,1.9,0,2.3-1c0.2-1.3-1.4-1.4-1.7-2    c1.8-2,3.4-3.8,5-5.7c-0.2-0.2-0.4-0.5-0.6-0.7c0.6-0.1,1.3-0.2,1.8-0.2c0.3-0.4,0.7-0.8,1-1.2c-0.3-0.5-0.9-0.2-1.4-0.6    c0.3-1.3,1-2.5,2-3.4c-0.9-0.7-1.8,0.1-2.4-0.7c0.9-2.5,0.9-2.5,3.4-1.5c0.2-0.1,0.4-0.3,0.5-0.5c0.2-0.2,0.3-0.4,0.6-0.6    c-0.1-0.2-0.3-0.5-0.3-0.4c-1.3,0.3-2.2-0.1-2.8-1.2c1.4-1.5,2.6-2.9,4-4.3c-0.7-0.8-0.9-1-1.2-1.3c0.2-0.6,0.9-0.3,1.3-0.7    c0.5-0.5-0.1-1.2,0.3-1.9c1.7-0.8,2.9-2.4,4.9-3.1c1.3-0.5,1.5-2.5,2.1-3.9c0.6-0.1,1.3-0.2,1.9-0.4c0-0.9,0-1.8,0-2.6    c0.3-0.4,0.7-0.8,1-1.2c0.5-0.1,1.1-0.1,1.6-0.1c0.1-0.2,0.4-0.5,0.3-0.6c-0.2-0.9,0-1.7-0.5-2.6c-0.8-1.5-1.2-3.1,0-4.3    c0.2-1.2-0.9-1.2-0.9-1.5c1-1.2,1.8-2,2.3-2.6c-0.2-1.9-0.2-3.2-0.3-4.8c0.7-0.6,1.3-1.1,2.3-2.1c0.4,0,1.2-0.1,2-0.1    c0.2-0.6,0.3-1.1,0.4-1.6c0.3,0.3,0.6,0.5,0.9,0.8c1.3-0.7,0.9-2.7,2.4-3.2c1.5-0.6,2.2-1.6,2.6-3.1c0.6-0.7,2.2,0.2,2.5-1.2    c0.2-0.2-0.6-2.4-1.4-3.9c0-0.8,0.7-1,1-1.6c0.5-0.1,1,0,1.7-0.1c0.1-1.3,1.1-2.1,1.9-3.1c0.8-0.9,1.5-2,2.8-2.3    c0.1-1.3-1.3-1.5-1.6-2.5c1.1-0.8,2.6,0.1,3.6-0.7c0.4-0.9-0.2-1.3-0.8-1.7c0.8-0.7,1.4-1.5,2.2-2.2c-0.1-1.3-0.1-2.6-0.3-3.6    c0.4-2.2,1.9-3.3,3.1-4.9c-1.3-1.2-1.2-2.9-1.1-4.5c0.8-0.9,1.6-1.8,2.5-2.8c1.9-0.3,4.2,0.2,5.9-1.6c-0.6-0.8-1.4,0.1-2.2-0.4    c0.2-2.2,3.1-3,2.6-5.3c1.5-0.6,3.3,0.3,3.9-2c-0.3-1.2-2.2-1.7-2.2-3.4c2.8-1.7,4.5-4.9,6.5-7.8c0.9-0.1,1.7-0.1,2.6-0.1    c0.6-0.8,1.3-1.8,1.8-2.6c2.2,0.2,3.8-0.3,5.3-1.4c-0.7-1.2-1.9-1.2-3-1.2c-0.9-1.2,1.2-2,0.5-3.3c-0.4-0.7-0.4-1.9,0.5-2.7    c-1-0.7-2.1,0.3-3.1-0.5c1.1-1.3,2.1-2.7,3.7-3.4c0.1-1.3-1.3-1.4-1.5-2.1c1.7-4.7,6.5-6.6,9.3-10.2c0.1-3.4,0.1-3.4,3.3-7    c2.1,0.1,3.7-1.5,6.1-1.1C1436.7-105.5,1434.4-106.5,1434.5-106.9c1.8,1,1.9,0.3,2.4,0.1c0.3,0.3,0.6,0.4,0.9,0.7    c0.3-0.5,1-0.7,0.8-1.5c-1,0-2-0.2-2.9,0.4C1435.6-106.8,1435.6-106.4,1434.5-106.9z M1294,165.8c0.3,0.3,0.7,0.6,1.1,0.9    c1.4-0.6,1-2.5,2.3-3.2c0.8,0.9,1.7,1,2.8,0.2c-0.4-1.6-1.4-2-2.8-1.8C1296.4,163.2,1295.2,164.5,1294,165.8z M1301.6,186.1    c-0.2-0.7,0-1.2-0.7-1.4c-0.4,0.3-1.3-0.4-1.9,0.5c0.2,0.3-0.1,0.8,0.4,1.1C1299.9,186.2,1300.7,186.2,1301.6,186.1z"/>
    	</clipPath>
	</defs>
	<path class="st st100" d="M1286.5,202c-0.4-1.7,164.8-343.2,164.8-343.2"/>
</g>
</svg>
